<?xml version="1.0" encoding="UTF-8"?>
<svg width="99px" height="160px" viewBox="0 0 99 160" version="1.1" xmlns="http://www.w3.org/2000/svg" xmlns:xlink="http://www.w3.org/1999/xlink">
    <!-- Generator: Sketch 49.2 (51160) - http://www.bohemiancoding.com/sketch -->
    <title>B</title>
    <desc>Created with Sketch.</desc>
    <defs>
        <path d="M70.6818182,76.1363636 C88.4090909,81.8181818 98.1818182,97.0454545 98.1818182,114.090909 C98.1818182,140.454545 80.4545455,160 47.7272727,160 L0,160 L0,0 L34.5454545,0 C69.5454545,0 90.9090909,15 90.9090909,43.6363636 C90.9090909,58.4090909 81.3636364,71.1363636 70.6818182,76.1363636 Z M29.0909091,27.2727273 L29.0909091,65.4545455 L35.6818182,65.4545455 C52.7272727,65.4545455 60.2272727,56.3636364 60.2272727,45.2272727 C60.2272727,34.0909091 52.7272727,27.2727273 35.6818182,27.2727273 L29.0909091,27.2727273 Z M41.5909091,132.727273 C60.4545455,132.727273 69.0909091,123.863636 69.0909091,111.818182 C69.0909091,100.227273 59.3181818,90.9090909 41.5909091,90.9090909 L29.0909091,90.9090909 L29.0909091,132.727273 L41.5909091,132.727273 Z" id="path-1"></path>
    </defs>
    <g id="Home" stroke="none" stroke-width="1" fill="none" fill-rule="evenodd">
        <g id="Tino-About" transform="translate(-972.000000, -2097.000000)">
            <g id="txt" transform="translate(120.000000, 298.000000)">
                <g id="B" transform="translate(779.000000, 1761.000000)">
                    <g id="1" transform="translate(73.000000, 38.000000)">
                        <mask id="mask-2" fill="white">
                            <use xlink:href="#path-1"></use>
                        </mask>
                        <use id="B" fill="#282828" xlink:href="#path-1"></use>
                    </g>
                </g>
            </g>
        </g>
    </g>
</svg>