<?xml version="1.0" encoding="UTF-8"?>
<svg width="80px" height="80px" viewBox="0 0 80 80" version="1.1" xmlns="http://www.w3.org/2000/svg" xmlns:xlink="http://www.w3.org/1999/xlink">
    <!-- Generator: Sketch 49.2 (51160) - http://www.bohemiancoding.com/sketch -->
    <title>behance-mouse</title>
    <desc>Created with Sketch.</desc>
    <defs></defs>
    <g id="Home" stroke="none" stroke-width="1" fill="none" fill-rule="evenodd">
        <g id="Tino-Home_Web" transform="translate(-834.000000, -2095.000000)">
            <g id="Last-Projects" transform="translate(50.000000, 1895.000000)">
                <g id="behance-mouse" transform="translate(784.000000, 200.000000)">
                    <circle id="o" fill="#282828" opacity="0.5" cx="40" cy="40" r="40"></circle>
                    <path d="M39.6360265,34.4555815 C40.0312615,35.0375525 40.2301218,35.7306866 40.2301218,36.5402149 C40.2301218,37.3732835 40.0312615,38.044185 39.631055,38.5503036 C39.4048514,38.8340962 39.0754889,39.0943484 38.6392391,39.3284447 C39.3016926,39.5834657 39.8000863,39.9849603 40.1393918,40.5342363 C40.4762115,41.0822046 40.6439999,41.7504904 40.6439999,42.5351705 C40.6439999,43.3433909 40.4525968,44.0705278 40.066062,44.7113498 C39.8212152,45.1363849 39.5142246,45.4960299 39.1475758,45.7863615 C38.7336977,46.1198505 38.2464899,46.3474078 37.6822237,46.4716488 C37.1179574,46.5958898 36.5077048,46.6560486 35.847737,46.6560486 L30,46.6560486 L30,33 L36.2715581,33 C37.8549836,33.026156 38.9748159,33.510042 39.6360265,34.4555815 L39.6360265,34.4555815 Z M32.5876702,35.3723494 L32.5876702,38.3855208 L35.7433353,38.3855208 C36.3051158,38.3855208 36.7637375,38.2717422 37.1167146,38.0454928 C37.465963,37.8205511 37.6436945,37.4203643 37.6436945,36.8475479 C37.6436945,36.2106492 37.4112764,35.7908454 36.9464404,35.5855208 C36.5449911,35.4442784 36.0341686,35.3723494 35.41273,35.3723494 L32.5876702,35.3723494 L32.5876702,35.3723494 Z M32.5876702,40.6440915 L32.5876702,44.285007 L35.7383638,44.285007 C36.3013872,44.285007 36.7401228,44.2052312 37.0533278,44.0456796 C37.6225656,43.7475012 37.9059416,43.1799159 37.9059416,42.3416161 C37.9059416,41.628865 37.6325086,41.1423634 37.0806711,40.8755722 C36.7711947,40.7277908 36.3386735,40.6493227 35.7831074,40.6440915 L32.5876702,40.6440915 L32.5876702,40.6440915 Z M48.4902834,36.7638487 C49.161437,37.0790285 49.7132745,37.5773003 50.1470386,38.2573564 C50.5435164,38.8576366 50.7983062,39.5533863 50.9138938,40.3446053 C50.9810092,40.8088744 51.0095953,41.4771602 50.9971666,42.3494629 L44.0059826,42.3494629 C44.0469975,43.3630079 44.3788457,44.0731434 45.0102273,44.4798692 C45.3942764,44.7335824 45.8553838,44.8591312 46.3947925,44.8591312 C46.9640302,44.8591312 47.4301092,44.7061186 47.7868149,44.3974778 C47.9831895,44.2300794 48.1547065,43.9985988 48.3038518,43.7017282 L50.8654216,43.7017282 C50.7983062,44.3007006 50.4875869,44.9088277 49.9357495,45.5287249 C49.0769214,46.509575 47.8725734,47 46.3264342,47 C45.0487565,47 43.9202241,46.5867352 42.9470513,45.7575899 C41.9676641,44.9297525 41.4816991,43.5814106 41.4816991,41.7164876 C41.4816991,39.9653433 41.9216776,38.6248482 42.8016346,37.6897711 C43.6840774,36.7586175 44.8275244,36.290425 46.2332185,36.290425 C47.0684319,36.290425 47.8216155,36.447361 48.4902834,36.7638487 L48.4902834,36.7638487 Z M44.7367944,39.044652 C44.3825744,39.4291453 44.1588565,39.9509575 44.0681265,40.6074731 L48.3920961,40.6074731 C48.3473525,39.9064923 48.1223917,39.3755255 47.724671,39.011957 C47.3219788,38.6496964 46.8260709,38.4679122 46.2344613,38.4679122 C45.5918938,38.4679122 45.0910144,38.6601588 44.7367944,39.044652 L44.7367944,39.044652 Z M43.4193446,35.3370388 L48.979977,35.3370388 L48.979977,33.6382064 L43.4193446,33.6382064 L43.4193446,35.3370388 Z" id="Be" fill="#FFFFFF"></path>
                </g>
            </g>
        </g>
    </g>
</svg>