<?xml version="1.0" encoding="UTF-8"?>
<svg width="173px" height="30px" viewBox="0 0 173 30" version="1.1" xmlns="http://www.w3.org/2000/svg" xmlns:xlink="http://www.w3.org/1999/xlink">
    <!-- Generator: Sketch 50.2 (55047) - http://www.bohemiancoding.com/sketch -->
    <title>driver-legend</title>
    <desc>Created with Sketch.</desc>
    <defs>
        <linearGradient x1="100%" y1="50%" x2="1.93054552%" y2="50%" id="linearGradient-1">
            <stop stop-color="#FFFFFF" stop-opacity="0" offset="0%"></stop>
            <stop stop-color="#FFFFFF" offset="100%"></stop>
        </linearGradient>
    </defs>
    <g id="Home" stroke="none" stroke-width="1" fill="none" fill-rule="evenodd">
        <g id="Tino-About" transform="translate(-1084.000000, -3948.000000)">
            <g id="clients" transform="translate(0.000000, 3673.000000)">
                <g id="Our-clients" transform="translate(190.000000, 120.000000)">
                    <g id="partners-white">
                        <g id="driver-legend" transform="translate(894.000000, 155.000000)">
                            <polygon id="line-h-1" fill="url(#linearGradient-1)" points="4.03546937 4.73684211 173.069425 4.73684211 173.069425 7.89473684 3.41462793 7.89473684"></polygon>
                            <polygon id="line-h-2" fill="url(#linearGradient-1)" points="172.91153 22.1052632 172.91153 25.2631579 0 25.2631579 0.620841442 22.1052632"></polygon>
                            <polygon id="line-v-1" fill="#FFFFFF" points="9.70370281 0 12.8614684 0 7.24285333 28.5789474 3.80626692 30"></polygon>
                            <polygon id="line-v-2" fill="#FFFFFF" points="17.5984397 0 20.7562052 0 15.1375902 28.5789474 11.7010038 30"></polygon>
                            <polygon id="def" fill="#FFFFFF" points="91.1220564 14.2105263 93.6483722 14.2105263 93.3325827 15.7894737 90.8062669 15.7894737"></polygon>
                            <path d="M33.4628052,11.8421053 C33.6277544,11.8421053 33.7840198,11.8746606 33.931606,11.9397721 C34.0791922,12.0048837 34.2029023,12.0960385 34.3027401,12.2132393 C34.4025778,12.3304401 34.4720291,12.4758537 34.511096,12.6494845 C34.5501629,12.8231154 34.5523333,13.0141064 34.5176071,13.2224634 L33.8274281,16.7775366 C33.7840204,17.0032567 33.708058,17.2007588 33.5995388,17.3700488 C33.4910195,17.5393389 33.365139,17.6825822 33.2218936,17.799783 C33.0786482,17.9169838 32.9202124,18.0059682 32.7465816,18.066739 C32.5729508,18.1275098 32.4036633,18.1578947 32.238714,18.1578947 L21.9641617,18.1578947 L23.1882528,11.8421053 L33.4628052,11.8421053 Z M31.9392023,16.7775366 C32.0694255,16.7775366 32.1931356,16.7232778 32.3103364,16.6147585 C32.4275372,16.5062393 32.5034995,16.3651664 32.5382257,16.1915355 L33.0070265,13.8084645 C33.0417527,13.6348336 33.0287306,13.4937607 32.9679598,13.3852415 C32.907189,13.2767222 32.7986714,13.2224634 32.6424037,13.2224634 L24.3211882,13.2224634 L23.6310092,16.7775366 L31.9392023,16.7775366 Z M46.354829,11.8421053 C46.5197783,11.8421053 46.6760437,11.8746606 46.8236299,11.9397721 C46.9712161,12.0048837 47.0949262,12.0960385 47.1947639,12.2132393 C47.2946017,12.3304401 47.3640529,12.4758537 47.4031199,12.6494845 C47.4421868,12.8231154 47.4443572,13.0141064 47.409631,13.2224634 L47.2012751,14.3033098 C47.1231412,14.6766161 46.9712165,14.9761248 46.7454964,15.2018448 C46.5197764,15.4275649 46.259334,15.5751489 45.9641617,15.6446012 L46.459007,18.1578947 L45.0395822,18.1578947 L44.4145143,15.6836679 L36.731389,15.6836679 L36.2495659,18.1578947 L34.8561855,18.1578947 L36.0802767,11.8421053 L46.354829,11.8421053 Z M37.2132121,13.2224634 L37.0048562,14.3033098 L45.3130493,14.3033098 C45.4432725,14.3033098 45.5626418,14.2750952 45.6711611,14.2186652 C45.7796804,14.1622352 45.851302,14.0472065 45.8860282,13.8735757 L45.9120727,13.730331 C45.9554804,13.5480186 45.9381176,13.4177975 45.8599837,13.3396636 C45.7818498,13.2615297 45.6646508,13.2224634 45.508383,13.2224634 L37.2132121,13.2224634 Z M49.154612,18.1578947 L47.7482094,18.1578947 L48.9723006,11.8421053 L50.3787032,11.8421053 L49.154612,18.1578947 Z M61.2262344,11.8421053 L62.9581931,11.8421053 L56.6293814,18.1578947 L55.2490233,18.1578947 L51.3683939,11.8421053 L53.1003526,11.8421053 L56.1996473,16.7905589 L61.2262344,11.8421053 Z M64.3906402,16.7775366 L74.5870591,16.7775366 L74.3135919,18.1578947 L62.7237927,18.1578947 L63.9478838,11.8421053 L75.5376831,11.8421053 L75.2772382,13.2224634 L65.0808193,13.2224634 L64.8724633,14.3033098 L75.0688822,14.3033098 L74.795415,15.6836679 L64.5989962,15.6836679 L64.3906402,16.7775366 Z M87.1144601,11.8421053 C87.2794094,11.8421053 87.4356748,11.8746606 87.5832609,11.9397721 C87.7308471,12.0048837 87.8545572,12.0960385 87.954395,12.2132393 C88.0542327,12.3304401 88.123684,12.4758537 88.1627509,12.6494845 C88.2018178,12.8231154 88.2039882,13.0141064 88.169262,13.2224634 L87.9609061,14.3033098 C87.8827722,14.6766161 87.7308475,14.9761248 87.5051275,15.2018448 C87.2794074,15.4275649 87.0189651,15.5751489 86.7237927,15.6446012 L87.2186381,18.1578947 L85.7992132,18.1578947 L85.1741454,15.6836679 L77.49102,15.6836679 L77.0091969,18.1578947 L75.6158166,18.1578947 L76.8399077,11.8421053 L87.1144601,11.8421053 Z M77.9728432,13.2224634 L77.7644872,14.3033098 L86.0726804,14.3033098 C86.2029035,14.3033098 86.3222729,14.2750952 86.4307921,14.2186652 C86.5393114,14.1622352 86.610933,14.0472065 86.6456592,13.8735757 L86.6717037,13.730331 C86.7151114,13.5480186 86.6977486,13.4177975 86.6196147,13.3396636 C86.5414809,13.2615297 86.4242818,13.2224634 86.2680141,13.2224634 L77.9728432,13.2224634 Z M98.0791915,16.7775366 L107.780765,16.7775366 L107.507298,18.1578947 L97.2327455,18.1578947 C97.0591147,18.1578947 96.9006789,18.1275098 96.7574335,18.066739 C96.6141881,18.0059682 96.4926483,17.9169838 96.3928106,17.799783 C96.2929729,17.6825822 96.2235216,17.5393389 96.1844547,17.3700488 C96.1453877,17.2007588 96.1475581,17.0032567 96.1909658,16.7775366 L97.1415898,11.8421053 L98.5349701,11.8421053 L97.6885241,16.1915355 C97.6537979,16.3651664 97.6776718,16.5062393 97.7601465,16.6147585 C97.8426211,16.7232778 97.9489684,16.7775366 98.0791915,16.7775366 Z M110.47637,16.7775366 L120.672789,16.7775366 L120.399322,18.1578947 L108.809522,18.1578947 L110.033614,11.8421053 L121.623413,11.8421053 L121.362968,13.2224634 L111.166549,13.2224634 L110.958193,14.3033098 L121.154612,14.3033098 L120.881145,15.6836679 L110.684726,15.6836679 L110.47637,16.7775366 Z M124.240884,11.8421053 L134.515437,11.8421053 L134.254992,13.2224634 L124.540396,13.2224634 C124.366765,13.2224634 124.232203,13.2767222 124.136706,13.3852415 C124.041209,13.4937607 123.976099,13.6348336 123.941373,13.8084645 L123.472572,16.1915355 C123.437846,16.3651664 123.455209,16.5062393 123.524661,16.6147585 C123.594113,16.7232778 123.693949,16.7775366 123.824173,16.7775366 L131.676587,16.7775366 C131.80681,16.7775366 131.93052,16.7232778 132.047721,16.6147585 C132.164922,16.5062393 132.240884,16.3651664 132.27561,16.1915355 L132.5621,14.7590884 L133.95548,14.7590884 L133.564813,16.7775366 C133.521405,17.0032567 133.445443,17.2007588 133.336923,17.3700488 C133.228404,17.5393389 133.102524,17.6825822 132.959278,17.799783 C132.816033,17.9169838 132.657597,18.0059682 132.483966,18.066739 C132.310336,18.1275098 132.141048,18.1578947 131.976099,18.1578947 L123.016793,18.1578947 C122.843162,18.1578947 122.684727,18.1275098 122.541481,18.066739 C122.398236,18.0059682 122.276696,17.9169838 122.176858,17.799783 C122.077021,17.6825822 122.007569,17.5393389 121.968502,17.3700488 C121.929435,17.2007588 121.931606,17.0032567 121.975014,16.7775366 L122.665193,13.2224634 C122.7086,13.0054249 122.782392,12.8100931 122.886571,12.6364623 C122.990749,12.4628315 123.114459,12.3174178 123.257705,12.200217 C123.40095,12.0830162 123.557216,11.9940318 123.726506,11.933261 C123.895796,11.8724902 124.067254,11.8421053 124.240884,11.8421053 Z M136.260418,16.7775366 L146.456837,16.7775366 L146.183369,18.1578947 L134.59357,18.1578947 L135.817661,11.8421053 L147.407461,11.8421053 L147.147016,13.2224634 L136.950597,13.2224634 L136.742241,14.3033098 L146.93866,14.3033098 L146.665193,15.6836679 L136.468774,15.6836679 L136.260418,16.7775366 Z M158.150814,13.2224634 L149.842621,13.2224634 L148.878974,18.1578947 L147.485594,18.1578947 L148.709685,11.8421053 L158.984238,11.8421053 C159.149187,11.8421053 159.305452,11.8724902 159.453038,11.933261 C159.600625,11.9940318 159.724335,12.0830162 159.824173,12.200217 C159.92401,12.3174178 159.995632,12.4628315 160.03904,12.6364623 C160.082447,12.8100931 160.082447,13.0054249 160.03904,13.2224634 L159.075393,18.1578947 L157.682013,18.1578947 L158.528459,13.8084645 C158.563185,13.6348336 158.541482,13.4937607 158.463348,13.3852415 C158.385214,13.2767222 158.281037,13.2224634 158.150814,13.2224634 Z M171.876261,11.8421053 C172.041211,11.8421053 172.197476,11.8746606 172.345062,11.9397721 C172.492649,12.0048837 172.616359,12.0960385 172.716196,12.2132393 C172.816034,12.3304401 172.885485,12.4758537 172.924552,12.6494845 C172.963619,12.8231154 172.96579,13.0141064 172.931063,13.2224634 L172.240884,16.7775366 C172.197477,17.0032567 172.121514,17.2007588 172.012995,17.3700488 C171.904476,17.5393389 171.778595,17.6825822 171.63535,17.799783 C171.492105,17.9169838 171.333669,18.0059682 171.160038,18.066739 C170.986407,18.1275098 170.81712,18.1578947 170.65217,18.1578947 L160.377618,18.1578947 L161.601709,11.8421053 L171.876261,11.8421053 Z M170.352659,16.7775366 C170.482882,16.7775366 170.606592,16.7232778 170.723793,16.6147585 C170.840993,16.5062393 170.916956,16.3651664 170.951682,16.1915355 L171.420483,13.8084645 C171.455209,13.6348336 171.442187,13.4937607 171.381416,13.3852415 C171.320645,13.2767222 171.212128,13.2224634 171.05586,13.2224634 L162.734645,13.2224634 L162.044466,16.7775366 L170.352659,16.7775366 Z" id="Driver-Legend" fill="#FFFFFF"></path>
                        </g>
                    </g>
                </g>
            </g>
        </g>
    </g>
</svg>