<?xml version="1.0" encoding="UTF-8"?>
<svg width="171px" height="26px" viewBox="0 0 171 26" version="1.1" xmlns="http://www.w3.org/2000/svg" xmlns:xlink="http://www.w3.org/1999/xlink">
    <!-- Generator: Sketch 50.2 (55047) - http://www.bohemiancoding.com/sketch -->
    <title>kepler</title>
    <desc>Created with Sketch.</desc>
    <defs></defs>
    <g id="Home" stroke="none" stroke-width="1" fill="none" fill-rule="evenodd">
        <g id="Tino-About" transform="translate(-190.000000, -3950.000000)" fill="#FFFFFF">
            <g id="clients" transform="translate(0.000000, 3673.000000)">
                <g id="Our-clients" transform="translate(190.000000, 120.000000)">
                    <g id="partners-white">
                        <g id="kepler" transform="translate(0.000000, 157.000000)">
                            <path d="M41.0913774,17.3333333 L39.4048498,17.3333333 L39.4048498,9.69090909 L41.0913774,9.69090909 L41.0913774,12.6690909 L50.4539697,12.6690909 L51.7306869,9.69090909 L53.4487383,9.69090909 L51.9198301,13.5042424 L53.4487383,17.3333333 L51.7306869,17.3333333 L50.4539697,14.3393939 L41.0913774,14.3393939 L41.0913774,17.3333333 Z M64.4348104,15.6630303 L76.7764094,15.6630303 L76.7764094,17.3333333 L62.7482829,17.3333333 L62.7482829,9.69090909 L76.7764094,9.69090909 L76.7764094,11.3612121 L64.4348104,11.3612121 L64.4348104,12.6690909 L76.7764094,12.6690909 L76.7764094,14.3393939 L64.4348104,14.3393939 L64.4348104,15.6630303 Z M98.669744,9.69090909 C98.8693962,9.69090909 99.0664185,9.73030264 99.2608167,9.80909091 C99.4552149,9.88787918 99.6259676,9.99818111 99.7730798,10.14 C99.9201919,10.2818189 100.038405,10.4577767 100.127723,10.6678788 C100.217042,10.8779808 100.2617,11.1090896 100.2617,11.3612121 L100.2617,12.6690909 C100.2617,12.9422236 100.217042,13.1812111 100.127723,13.3860606 C100.038405,13.5909101 99.9201919,13.7642417 99.7730798,13.9060606 C99.6259676,14.0478795 99.4552149,14.1555552 99.2608167,14.2290909 C99.0664185,14.3026266 98.8693962,14.3393939 98.669744,14.3393939 L87.9201009,14.3393939 L87.9201009,17.3333333 L86.2335734,17.3333333 L86.2335734,9.69090909 L98.669744,9.69090909 Z M87.9201009,11.3612121 L87.9201009,12.6690909 L97.9762186,12.6690909 C98.1233308,12.6690909 98.2599329,12.6323236 98.386029,12.5587879 C98.5121252,12.4852522 98.5751723,12.3434354 98.5751723,12.1333333 L98.5751723,11.96 C98.5751723,11.7393928 98.5173791,11.5844449 98.401791,11.4951515 C98.2862029,11.4058581 98.1390929,11.3612121 97.9604567,11.3612121 L87.9201009,11.3612121 Z M112.004345,15.6630303 L123.74699,15.6630303 L123.74699,17.3333333 L111.31082,17.3333333 C111.10066,17.3333333 110.90101,17.296566 110.711866,17.2230303 C110.522722,17.1494946 110.354596,17.0418189 110.207484,16.9 C110.060372,16.7581811 109.942158,16.5848495 109.85284,16.38 C109.763522,16.1751505 109.718864,15.936163 109.718864,15.6630303 L109.718864,9.69090909 L111.405391,9.69090909 L111.405391,14.9539394 C111.405391,15.1640415 111.465812,15.3347468 111.586654,15.4660606 C111.707496,15.5973744 111.846725,15.6630303 112.004345,15.6630303 Z M134.890682,15.6630303 L147.232281,15.6630303 L147.232281,17.3333333 L133.204154,17.3333333 L133.204154,9.69090909 L147.232281,9.69090909 L147.232281,11.3612121 L134.890682,11.3612121 L134.890682,12.6690909 L147.232281,12.6690909 L147.232281,14.3393939 L134.890682,14.3393939 L134.890682,15.6630303 Z M169.125615,9.69090909 C169.325268,9.69090909 169.52229,9.73030264 169.716688,9.80909091 C169.911086,9.88787918 170.081839,9.99818111 170.228951,10.14 C170.376063,10.2818189 170.494277,10.4577767 170.583595,10.6678788 C170.672913,10.8779808 170.717571,11.1090896 170.717571,11.3612121 L170.717571,12.6690909 C170.717571,13.1208103 170.604612,13.483231 170.37869,13.7563636 C170.152767,14.0294963 169.871682,14.2080804 169.535426,14.2921212 L170.733333,17.3333333 L169.015282,17.3333333 L167.675517,14.3393939 L158.375972,14.3393939 L158.375972,17.3333333 L156.689445,17.3333333 L156.689445,9.69090909 L169.125615,9.69090909 Z M158.375972,11.3612121 L168.416328,11.3612121 C168.605472,11.3612121 168.755209,11.4084844 168.865543,11.5030303 C168.975878,11.5975762 169.031044,11.7551504 169.031044,11.9757576 L169.031044,12.1490909 C169.031044,12.359193 168.970624,12.4983835 168.849782,12.5666667 C168.728939,12.6349498 168.58971,12.6690909 168.43209,12.6690909 L158.375972,12.6690909 L158.375972,11.3612121 Z M11.8214549,0 L22.8548129,6.3030303 L11.8214549,11.8181818 L0.788096997,6.3030303 L11.8214549,0 Z M0,7.87878788 L11.033358,13.3939394 L11.033358,26 L0,19.6969697 L0,7.87878788 Z" id="Combined-Shape"></path>
                        </g>
                    </g>
                </g>
            </g>
        </g>
    </g>
</svg>