<?xml version="1.0" encoding="UTF-8"?>
<svg width="104px" height="36px" viewBox="0 0 104 36" version="1.1" xmlns="http://www.w3.org/2000/svg" xmlns:xlink="http://www.w3.org/1999/xlink">
    <!-- Generator: Sketch 50.2 (55047) - http://www.bohemiancoding.com/sketch -->
    <title>kgo</title>
    <desc>Created with Sketch.</desc>
    <defs></defs>
    <g id="Home" stroke="none" stroke-width="1" fill="none" fill-rule="evenodd">
        <g id="Tino-About" transform="translate(-518.000000, -3805.000000)" fill="#FFFFFF">
            <g id="clients" transform="translate(0.000000, 3673.000000)">
                <g id="Our-clients" transform="translate(190.000000, 120.000000)">
                    <g id="partners-white">
                        <g id="kgo" transform="translate(328.000000, 12.000000)">
                            <path d="M57.1930844,24.1613215 L52.1112566,24.1613215 C51.0438407,22.2121273 49.8604014,20.4485706 48.3288917,18.5225811 L48.3288917,24.1613215 L43.92,24.1613215 L43.92,7.03625811 L48.3288917,5.76 L48.3288917,16.4805681 C49.7211732,14.7402162 50.9046126,13.1158877 51.8792097,11.4451498 L56.9842421,11.4451498 C55.707984,13.4407534 54.199679,15.3435382 52.459327,17.4783699 C54.6173634,19.9380674 55.8240075,21.8408522 57.1930844,24.1613215 Z M74.4805806,23.0242915 L70.3037359,24.3237544 C70.0716889,23.9988887 69.839642,23.674023 69.5843904,23.3491572 C68.2153135,24.0220933 66.5677803,24.3933684 64.6882002,24.3933684 C60.6273789,24.3933684 57.9124298,22.2817414 57.9124298,19.1259031 C57.9124298,16.7590245 59.3511208,15.3899476 61.0218587,14.4385552 C60.0008522,13.2551158 59.3511208,12.1644953 59.3511208,11.1898981 C59.3511208,8.52135846 61.601976,6.7578018 65.0594753,6.7578018 C68.4241557,6.7578018 70.7678297,8.52135846 70.6982157,11.1898981 C70.6286016,13.394344 68.9114543,14.3689411 67.0550789,15.1579006 C67.8672431,15.9004508 68.7722261,16.6894104 69.6772092,17.547984 C69.9092561,16.8982526 70.0252796,16.1557024 70.0252796,15.3667429 L73.8772586,16.4341588 C73.8772586,18.0352826 73.4595741,19.4739735 72.6938192,20.6574129 C73.3435506,21.4231677 73.9468727,22.2121273 74.4805806,23.0242915 Z M63.8064219,11.2131028 C63.8064219,11.653992 64.1080829,12.1876999 64.6185861,12.791022 C65.5699785,12.3501328 66.2429146,11.8860389 66.2429146,11.2131028 C66.2429146,10.6097808 65.7556161,10.1920964 65.0130659,10.1920964 C64.2705157,10.1920964 63.8064219,10.6329855 63.8064219,11.2131028 Z M64.6882002,20.9590739 C65.5699785,20.9590739 66.3589381,20.796641 67.0550789,20.4717753 C65.8484348,19.2419266 64.5721767,18.0584873 63.4351468,16.944662 C62.7854154,17.4783699 62.3445262,18.1745107 62.3445262,19.1259031 C62.3445262,20.2165237 63.2727139,20.9590739 64.6882002,20.9590739 Z M79.283952,19.7756345 C79.283952,21.7480334 88.4730104,19.5203829 88.4730104,25.1127139 C88.4730104,28.430985 86.1293365,29.4984009 81.0939181,29.4984009 C79.3767708,29.4984009 77.1027109,29.1735352 76.0584997,28.5702132 L76.0584997,25.6696265 C77.3579625,26.1337204 79.3999755,26.388972 81.558012,26.388972 C83.5304109,26.388972 84.2497563,26.2033345 84.2497563,25.7624453 C84.2497563,24.1845262 75.431973,25.9248782 75.431973,21.399963 C75.431973,20.3325472 76.0120903,19.0562891 77.1491203,17.9888732 C76.4529795,17.3159371 76.0584997,16.4109541 76.0584997,15.3899476 C76.0584997,13.6263909 77.1491203,12.1644953 79.1679286,11.5611732 L87.2431617,9.12468048 L88.1481447,12.0948812 L86.1757458,12.5357703 C87.1271383,13.2783205 87.7072556,14.299327 87.7072556,15.4827663 C87.7072556,17.9424638 85.3867863,19.5667923 81.9060823,19.5667923 C80.9778946,19.5667923 80.119321,19.4507688 79.3767708,19.2187219 C79.3071567,19.4043594 79.283952,19.589997 79.283952,19.7756345 Z M81.8828777,16.7822291 C82.764656,16.7822291 83.3447733,16.2021118 83.3447733,15.3435382 C83.3447733,14.5313739 82.764656,13.997666 81.9060823,13.997666 C81.0010993,13.997666 80.3977773,14.5545786 80.3977773,15.3899476 C80.3977773,16.2253165 80.9778946,16.7822291 81.8828777,16.7822291 Z M96.6642671,24.3933684 C92.4178082,24.3933684 89.5868357,21.7480334 89.5868357,17.8032356 C89.5868357,13.8352331 92.4178082,11.2131028 96.6642671,11.2131028 C100.864316,11.2131028 103.695289,13.8352331 103.695289,17.8032356 C103.695289,21.7480334 100.864316,24.3933684 96.6642671,24.3933684 Z M96.6410624,20.9590739 C98.1261627,20.9590739 99.1471692,19.6828158 99.1471692,17.8032356 C99.1471692,15.9004508 98.1261627,14.6473974 96.6410624,14.6473974 C95.1327573,14.6473974 94.1349555,15.9004508 94.1349555,17.8032356 C94.1349555,19.6828158 95.1327573,20.9590739 96.6410624,20.9590739 Z" id="k&amp;go"></path>
                            <path d="M14.4336055,28.867211 C10.7397237,28.867211 7.04584196,27.4580426 4.22750518,24.6397058 C-1.40916839,19.0030323 -1.40916839,9.86417874 4.22750518,4.22750518 C9.86417874,-1.40916839 19.0030323,-1.40916839 24.6397058,4.22750518 C28.4118265,7.99962586 29.6596047,13.3401719 28.3830405,18.1499301 L19.4853674,9.25225702 L19.4853674,9.279767 C16.6631529,6.51232149 12.1318597,6.52925094 9.33055534,9.33055534 C6.51221856,12.1488921 6.51221856,16.7183189 9.33055534,19.5366557 C10.7397237,20.9458241 12.5866646,21.6504083 14.4336055,21.6504083 L14.4336055,15.0109497 L24.6397058,25.2170501 L14.4336055,35.4231504 L14.4336055,28.867211 Z" id="Mask"></path>
                        </g>
                    </g>
                </g>
            </g>
        </g>
    </g>
</svg>