<?xml version="1.0" encoding="UTF-8"?>
<svg width="130px" height="29px" viewBox="0 0 130 29" version="1.1" xmlns="http://www.w3.org/2000/svg" xmlns:xlink="http://www.w3.org/1999/xlink">
    <!-- Generator: Sketch 50.2 (55047) - http://www.bohemiancoding.com/sketch -->
    <title>mindnow</title>
    <desc>Created with Sketch.</desc>
    <defs></defs>
    <g id="Home" stroke="none" stroke-width="1" fill="none" fill-rule="evenodd">
        <g id="Tino-About" transform="translate(-1106.000000, -3809.000000)" fill="#FFFFFF">
            <g id="clients" transform="translate(0.000000, 3673.000000)">
                <g id="Our-clients" transform="translate(190.000000, 120.000000)">
                    <g id="partners-white">
                        <path d="M961.774129,23.1625555 C964.183668,23.1625555 965.717012,24.3855793 965.717012,27.0141676 L965.717012,33.2023026 L963.16144,33.2023026 L963.16144,27.1967084 C963.16144,25.8641602 962.467784,25.1705049 961.281269,25.1705049 C960.697138,25.1705049 960.094753,25.2800294 959.528876,25.6268571 C959.565385,25.8824143 959.601893,26.1744796 959.601893,26.466545 L959.601893,33.2023026 L957.046321,33.2023026 L957.046321,27.1967084 C957.046321,25.8641602 956.352666,25.1705049 955.16615,25.1705049 C954.582019,25.1705049 954.034397,25.2982835 953.486774,25.6451112 L953.486774,33.2023026 L950.931202,33.2023026 L950.931202,23.2538259 C951.77089,23.2538259 952.610578,23.4546209 953.231217,23.8197026 C954.125667,23.3998586 955.111388,23.1625555 956.005838,23.1625555 C957.119337,23.1625555 958.013787,23.4546209 958.634426,24.0204975 C959.437606,23.4363668 960.478089,23.1625555 961.774129,23.1625555 Z M971.035035,21.8117532 C970.158839,21.8117532 969.519946,21.1728602 969.519946,20.2966641 C969.519946,19.420468 970.158839,18.781575 971.035035,18.781575 C971.911231,18.781575 972.568378,19.420468 972.568378,20.2966641 C972.568378,21.1728602 971.911231,21.8117532 971.035035,21.8117532 Z M969.757249,23.3450964 L972.312821,23.3450964 L972.312821,33.2023026 L969.757249,33.2023026 L969.757249,23.3450964 Z M982.340399,23.1625555 C984.676922,23.1625555 986.045978,24.3855793 986.045978,27.0141676 L986.045978,33.2023026 L983.490406,33.2023026 L983.490406,27.2332166 C983.490406,25.8641602 982.723735,25.1705049 981.299916,25.1705049 C980.496736,25.1705049 979.803081,25.389554 979.018155,25.7728898 L979.018155,33.2023026 L976.462583,33.2023026 L976.462583,23.2538259 C977.448304,23.2538259 978.269738,23.472875 978.908631,23.910973 C980.02213,23.4363668 981.245154,23.1625555 982.340399,23.1625555 Z M999.706119,18.781575 L999.706119,33.293573 C998.811669,33.293573 998.063251,33.1110322 997.442612,32.7459505 C996.602924,33.1475404 995.525933,33.3848435 994.48545,33.3848435 C991.510035,33.3848435 989.538593,31.35864 989.538593,28.3102077 C989.538593,25.2252672 991.510035,23.1625555 994.448942,23.1625555 C995.416409,23.1625555 996.365621,23.4181127 997.150547,23.8744649 L997.150547,19.5117384 L999.706119,18.781575 Z M992.185436,28.2919536 C992.185436,30.1356162 993.317189,31.3768941 995.142598,31.3768941 C995.763236,31.3768941 996.475146,31.1943532 997.150547,30.9022878 L997.150547,25.827652 C996.4934,25.407808 995.763236,25.1705049 995.087835,25.1705049 C993.335443,25.1705049 992.185436,26.4117828 992.185436,28.2919536 Z M1009.7337,23.1625555 C1012.07022,23.1625555 1013.43928,24.3855793 1013.43928,27.0141676 L1013.43928,33.2023026 L1010.8837,33.2023026 L1010.8837,27.2332166 C1010.8837,25.8641602 1010.11703,25.1705049 1008.69321,25.1705049 C1007.89003,25.1705049 1007.19638,25.389554 1006.41145,25.7728898 L1006.41145,33.2023026 L1003.85588,33.2023026 L1003.85588,23.2538259 C1004.8416,23.2538259 1005.66304,23.472875 1006.30193,23.910973 C1007.41543,23.4363668 1008.63845,23.1625555 1009.7337,23.1625555 Z M1022.22558,33.3848435 C1019.04937,33.3848435 1016.93189,31.3403859 1016.93189,28.2736995 C1016.93189,25.2070131 1019.04937,23.1625555 1022.22558,23.1625555 C1025.36528,23.1625555 1027.50101,25.2070131 1027.50101,28.2736995 C1027.50101,31.3403859 1025.36528,33.3848435 1022.22558,33.3848435 Z M1022.20732,31.3768941 C1023.77717,31.3768941 1024.85416,30.1356162 1024.85416,28.2736995 C1024.85416,26.4117828 1023.77717,25.1705049 1022.20732,25.1705049 C1020.61922,25.1705049 1019.56048,26.4117828 1019.56048,28.2736995 C1019.56048,30.1356162 1020.61922,31.3768941 1022.20732,31.3768941 Z M1042.9683,23.3450964 L1045.68816,23.3450964 C1044.3191,26.685594 1042.56671,30.4276816 1041.05162,33.3848435 L1040.90559,33.3848435 C1039.81035,31.3768941 1038.67859,28.9856088 1037.61985,26.5578154 C1036.57937,28.9856088 1035.42936,31.3768941 1034.31587,33.3848435 L1034.16983,33.3848435 C1032.673,30.4276816 1030.93886,26.685594 1029.55155,23.3450964 L1032.30792,23.3450964 C1032.87379,25.1522508 1033.60396,27.0324217 1034.38888,28.8213221 C1035.22857,27.0324217 1036.0135,25.1522508 1036.59763,23.3450964 L1038.64208,23.3450964 C1039.24447,25.1522508 1040.01114,27.0324217 1040.86908,28.8213221 C1041.65401,27.0324217 1042.36592,25.1522508 1042.9683,23.3450964 Z M936.643355,43.7542485 C935.481862,44.4248369 933.996666,44.0268799 933.326078,42.8653868 C932.65549,41.7038936 933.053446,40.2186981 934.21494,39.5481098 C935.376433,38.8775214 936.861628,39.2754783 937.532217,40.4369715 C938.202805,41.5984646 937.804848,43.0836601 936.643355,43.7542485 Z M932.393628,36.3935057 C927.166909,39.4111534 920.483529,37.6203472 917.465882,32.3936281 C914.448234,27.166909 916.23904,20.4835292 921.465759,17.4658815 C926.692478,14.4482338 933.375858,16.23904 936.393506,21.4657592 C939.411153,26.6924783 937.620347,33.375858 932.393628,36.3935057 Z M929.965213,32.187367 C932.868946,30.5108961 933.863838,26.7979073 932.187367,23.8941745 C930.510896,20.9904416 926.797907,19.9955493 923.894174,21.6720202 C920.990442,23.3484912 919.995549,27.0614799 921.67202,29.9652128 C923.348491,32.8689456 927.06148,33.8638379 929.965213,32.187367 Z" id="mindnow"></path>
                    </g>
                </g>
            </g>
        </g>
    </g>
</svg>