<?xml version="1.0" encoding="UTF-8"?>
<svg width="80px" height="46px" viewBox="0 0 80 46" version="1.1" xmlns="http://www.w3.org/2000/svg" xmlns:xlink="http://www.w3.org/1999/xlink">
    <!-- Generator: Sketch 50.2 (55047) - http://www.bohemiancoding.com/sketch -->
    <title>oikaa</title>
    <desc>Created with Sketch.</desc>
    <defs>
        <linearGradient x1="100%" y1="0%" x2="0%" y2="100%" id="linearGradient-1">
            <stop stop-color="#B83B3E" offset="0%"></stop>
            <stop stop-color="#912B2D" offset="100%"></stop>
        </linearGradient>
    </defs>
    <g id="Home" stroke="none" stroke-width="1" fill="none" fill-rule="evenodd">
        <g id="Tino-About" transform="translate(-235.000000, -3800.000000)" fill="#FFFFFF">
            <g id="clients" transform="translate(0.000000, 3673.000000)">
                <g id="Our-clients" transform="translate(190.000000, 120.000000)">
                    <g id="partners-white">
                        <g id="oikaa" transform="translate(45.000000, 7.000000)">
                            <path d="M41.0217553,7.12479956 C41.1346644,8.80208881 40.9506644,10.5497086 40.4674744,12.3680392 C39.9842843,14.18675 39.323557,15.9769483 38.4852925,17.7382541 C37.6470281,19.5007004 36.701557,21.1912954 35.6511603,22.8107996 C34.5988628,24.4306839 33.575838,25.8943202 32.5820859,27.2013285 C31.4446314,28.7356756 30.2440694,30.1844855 28.9804,31.5492789 C27.7152099,32.9125516 26.4013587,34.2343863 25.0377058,35.5128822 C23.872119,36.6206839 22.6217553,37.736469 21.2862347,38.8590971 C19.9503339,39.981345 18.5509454,41.0115929 17.0880694,41.9494607 C15.6240529,42.8869483 14.1182182,43.6967004 12.5701851,44.3787169 C11.0206314,45.0611136 9.45054873,45.5294772 7.85993716,45.7853285 C6.86466444,45.9556425 5.87775535,45.9624855 4.89768923,45.8073781 C3.91686278,45.6499896 3.01435039,45.2599401 2.19015204,44.634188 C1.50813551,44.0373285 1.00403634,43.3488491 0.677474355,42.5672293 C0.350532206,41.7856095 0.144862784,40.954188 0.0593255944,40.0737252 C-0.0262115957,39.1932624 -0.0193686205,38.2979731 0.0806148506,37.3886177 C0.179837991,36.4792624 0.32924295,35.5984194 0.528069396,34.7457086 C0.982366917,32.8703533 1.60773882,31.0447996 2.40342477,29.2690475 C3.19911072,27.4932954 4.09401981,25.7947169 5.08929254,24.1752128 C6.11193716,22.5553285 7.22049915,21.0065351 8.41421816,19.5288326 C9.60717683,18.0515103 10.8856727,16.6874772 12.2504661,15.4367334 C13.4434248,14.2152624 14.6865653,13.0922541 15.9798876,12.0692293 C17.2720694,11.0465847 18.6437058,10.1372293 20.0925157,9.34154336 C20.7749124,9.02904749 21.4922843,8.71655162 22.2450115,8.40367559 C22.998119,8.09117972 23.7592099,7.86422104 24.5256231,7.72165906 C24.6678049,7.69352683 24.8248132,7.67223757 24.9947471,7.65779129 C25.1650611,7.64372518 25.3072429,7.66501443 25.4209124,7.72165906 C25.5342016,7.77906402 25.4988463,7.8569979 25.3140859,7.95622104 C25.1293256,8.05620451 25.0228793,8.1341384 24.9947471,8.19040286 C24.681871,8.36109708 24.3906644,8.51772518 24.1211272,8.65952683 C23.8504496,8.80208881 23.5592429,8.95757642 23.2471272,9.1286508 C21.8545818,9.95284914 20.5190611,10.8903367 19.2405653,11.9414938 C17.9613091,12.993031 16.7394578,14.1301053 15.5746314,15.3515764 C14.2961355,16.6300723 13.0811272,17.9876425 11.9303669,19.4220062 C10.7796066,20.8575103 9.70639997,22.3568822 8.71188758,23.9193615 C7.63221816,25.4537086 6.62325948,27.0595268 5.68615204,28.7356756 C4.74790411,30.4122045 3.92408592,32.1887169 3.21317683,34.0636921 C2.92919336,34.8031136 2.66649915,35.6406177 2.42509419,36.5784855 C2.18330907,37.5159731 2.06963964,38.4397748 2.08408592,39.3491301 C2.09777188,40.2581053 2.29013551,41.0823037 2.65965617,41.821345 C3.02879667,42.5603863 3.6823008,43.0717086 4.62054873,43.3556921 C5.52952394,43.6678078 6.4597884,43.7244524 7.41210245,43.5267665 C8.3644165,43.3271797 9.26654873,43.0428161 10.1188793,42.6740558 C11.6243339,42.0197913 13.0389289,41.2176425 14.3600033,40.2657086 C15.6814578,39.3133946 16.9664165,38.2831467 18.2175405,37.175345 C20.035871,35.6406177 21.9325157,33.9009814 23.9074744,31.9537748 C25.8828132,30.0077086 27.8007471,27.9259235 29.6624165,25.7087996 C31.5229454,23.4928161 33.2283669,21.1700062 34.7771603,18.7403698 C36.3255735,16.3107334 37.5831603,13.8320558 38.5495405,11.3020558 C38.8050115,10.6774442 39.0247471,9.99580782 39.2098876,9.25600617 C39.3942677,8.51772518 39.4934909,7.78552683 39.5086975,7.06093179 C39.5223834,6.33633675 39.4159372,5.6402541 39.1889785,4.97230369 C38.9612595,4.30511361 38.5776727,3.71509708 38.0382182,3.2033946 C37.3273091,2.57878303 36.5464496,2.15908055 35.6933587,1.94618799 C34.8414082,1.73291526 33.9734909,1.64091526 33.0934082,1.66904749 C32.2125653,1.72645245 31.3385653,1.85418799 30.4721686,2.05263427 C29.6050115,2.25184088 28.7595239,2.50731195 27.9357058,2.81980782 C26.3162016,3.30337807 24.7457388,3.90023757 23.225838,4.61000617 C21.7051768,5.32053509 20.2206314,6.13066732 18.7718215,7.03964253 C17.3503834,7.94937807 16.0369124,8.93020451 14.8287471,9.98098137 C13.6205818,11.0325186 12.3918876,12.1266343 11.1415239,13.2629483 C11.0567471,13.3199731 10.9639868,13.384221 10.8651438,13.4549318 C10.7647801,13.5256425 10.6727801,13.5758243 10.5880033,13.6039566 C10.4739537,13.632469 10.4522843,13.5758243 10.5237553,13.4332624 C10.5940859,13.2914607 10.6305818,13.2063037 10.6305818,13.1777913 C11.1977884,12.098502 11.893871,11.0750971 12.7188297,10.1087169 C13.5426479,9.14309708 14.3812925,8.24818799 15.2340033,7.42322931 C16.5124991,6.17324584 17.8833752,5.07266732 19.3466314,4.11997311 C20.8098876,3.16803923 22.3522182,2.35106402 23.9717223,1.66904749 C25.5912264,1.01554336 27.2681355,0.53919625 29.0013091,0.241146663 C30.7341025,-0.057663254 32.4539702,-0.0785723449 34.1590115,0.177278895 C34.9832099,0.319460713 35.8070281,0.53273344 36.6312264,0.816716911 C37.4550446,1.10070038 38.1937058,1.56982435 38.8472099,2.22294832 C39.5010942,2.84832022 40.0055735,3.58698137 40.3610281,4.44007228 C40.7157223,5.29240286 40.9362182,6.18731195 41.0217553,7.12479956" id="Fill-1"></path>
                            <path d="M45.7334195,16.2262149 C45.8189567,16.4539339 45.8250393,16.6881157 45.7543286,16.9295207 C45.6832377,17.1713058 45.5695682,17.3982645 45.4137005,17.6115372 C45.2570724,17.8244298 45.0787749,18.0164132 44.8803286,18.1867273 C44.681122,18.3574215 44.4822955,18.485157 44.2842294,18.5706942 C44.1139154,18.6558512 43.9071054,18.719719 43.6657005,18.7622975 C43.4239154,18.804876 43.1901137,18.8197025 42.9627749,18.804876 C42.7346757,18.7911901 42.5221633,18.7410083 42.323717,18.6558512 C42.1245104,18.5706942 41.9827087,18.4148264 41.8971715,18.1867273 C41.7268575,17.7324298 41.7835021,17.2990413 42.0674856,16.8869421 C42.3514691,16.474843 42.6787914,16.1695702 43.048312,15.9707438 C43.2186261,15.8574545 43.4315187,15.7646942 43.6877501,15.6936033 C43.942841,15.6228926 44.2055352,15.5867769 44.4758327,15.5867769 C44.7457501,15.5867769 44.993998,15.6297355 45.2220972,15.7148926 C45.4490558,15.7996694 45.6197501,15.9707438 45.7334195,16.2262149 M40.9596839,29.0560331 C41.0163286,28.9993884 41.1649732,28.9146116 41.4071385,28.8009421 C41.6481633,28.6872727 41.7835021,28.6583802 41.8116344,28.7150248 L41.8116344,28.7792727 C41.8116344,28.7940992 41.7690558,28.8431405 41.6835187,28.9282975 C40.6323616,29.8946777 39.559155,30.7971901 38.4657996,31.6350744 C37.3716839,32.4733388 36.2847914,33.3469587 35.2047418,34.2566942 C34.7504443,34.6551074 34.18856,35.1660496 33.5217501,35.7910413 C32.8530393,36.4160331 32.3063616,36.9277355 31.8798162,37.3253884 C31.7098823,37.4679504 31.5175187,37.6169752 31.3050063,37.7724628 C31.0913534,37.9298512 30.8643947,38.0564463 30.6229897,38.1571901 C30.3815848,38.2556529 30.1397996,38.2913884 29.8983947,38.2632562 C29.6573699,38.2343636 29.4083616,38.1062479 29.1525104,37.8792893 C28.9251715,37.6527107 28.8472377,37.3398347 28.9175682,36.9414215 C28.9894195,36.5445289 29.0962459,36.1894545 29.2376674,35.8761983 C29.5216509,35.1660496 29.9618823,34.3627603 30.5587418,33.4682314 C31.1556013,32.5721818 31.8300145,31.6563636 32.5835021,30.718876 C33.3362294,29.7810083 34.1178492,28.8644298 34.9276013,27.9691405 C35.7381137,27.0742314 36.4976839,26.2713223 37.2082129,25.5607934 C37.9183616,24.8510248 38.5296674,24.2686116 39.0409897,23.8127934 C39.5530724,23.3592562 39.8937005,23.103405 40.0640145,23.046 C40.262841,22.960843 40.4194691,22.947157 40.5331385,23.0034215 C40.5897831,23.032314 40.6399649,23.0748926 40.6821633,23.1315372 C40.7247418,23.188562 40.7178988,23.273719 40.6612542,23.3870083 C40.2913534,24.0690248 39.851122,24.8088264 39.3394195,25.6033719 C38.8280972,26.3998182 38.2738162,27.2308595 37.677717,28.0972562 C37.0808575,28.9644132 36.4619484,29.8589421 35.8228906,30.7827438 C35.1838327,31.7061653 34.5656839,32.6512562 33.9688244,33.616876 C34.2246757,33.4180496 34.5656839,33.1694215 34.9918492,32.8713719 C35.4183947,32.5721818 35.7590228,32.3383802 36.0152542,32.1684463 C36.8386922,31.6289917 37.6484443,31.0956198 38.4441302,30.5694711 C39.239436,30.0437025 40.0784608,29.5399835 40.9596839,29.0560331" id="Fill-3"></path>
                            <path d="M63.335062,0.0105377366 C63.3913264,0.06756253 63.3844835,0.195678232 63.3141529,0.394124513 C63.2423017,0.593331125 63.1434587,0.819909637 63.0149628,1.07614104 C62.8876074,1.33199228 62.7594917,1.57377741 62.6317562,1.80035592 C62.5036405,2.02845509 62.4112603,2.18432286 62.3549959,2.26947989 C61.5593099,3.66202534 60.7206653,5.03328154 59.8398223,6.38248815 C58.9589793,7.73283526 58.0500041,9.11815757 57.111376,10.5384551 C56.0320868,12.1302072 54.944814,13.7002898 53.8510785,15.248703 C52.7565826,16.7974964 51.6560041,18.3535129 50.5474421,19.9159923 C49.5818223,21.2522733 48.5656405,22.6375956 47.5000372,24.0715791 C46.4344339,25.5074634 45.4186322,26.9064716 44.4522521,28.2701245 C44.4800041,28.3271493 44.4948306,28.370108 44.4948306,28.3982402 C44.4948306,28.4271328 44.5088967,28.4693311 44.5374091,28.5259758 C45.2194256,27.986141 46.0432438,27.3615295 47.0100041,26.6506204 C47.9752438,25.941232 48.9553099,25.2440088 49.9509628,24.5619923 C50.945095,23.8799758 51.890186,23.2694303 52.7854752,22.7292154 C53.6807645,22.190141 54.4266488,21.8065543 55.0227479,21.5784551 C55.1082851,21.5218105 55.2078884,21.5005212 55.321938,21.5145873 C55.4348471,21.5290336 55.4492934,21.6073477 55.3641364,21.7487691 C55.2793595,21.9194634 55.1725331,22.0688683 55.0447975,22.1966039 C54.9166818,22.3243394 54.7957893,22.4596782 54.6825,22.6010997 C54.0571281,23.2268518 53.3534421,23.8662898 52.5718223,24.5190336 C51.7902025,25.1732981 50.9808306,25.7982898 50.1429463,26.3951493 C49.3046818,26.9920088 48.4443678,27.5607361 47.5642851,28.0998105 C46.683062,28.6400253 45.815905,29.0950832 44.9635744,29.4642237 C44.9354421,29.4927361 44.9061694,29.506422 44.8787975,29.506422 C44.8495248,29.506422 44.8358388,29.5212485 44.8358388,29.5493807 C45.2620041,30.9978105 45.6957727,32.4834964 46.1360041,34.0037774 C46.5762355,35.5240584 46.9955579,37.0371162 47.3932107,38.542951 C47.4502355,38.6843724 47.4787479,38.8554468 47.4787479,39.0546534 C47.4787479,39.2538601 47.3650785,39.3386369 47.1377397,39.3101245 C46.9385331,39.2816121 46.7609959,39.2177443 46.6047479,39.1185212 C46.4485,39.0185377 46.299095,38.9120915 46.1572934,38.7988022 C45.815905,38.5144386 45.5243182,38.1943394 45.2832934,37.839265 C45.0418884,37.484951 44.8073264,37.1082072 44.5799876,36.7101741 C44.1253099,35.9148683 43.6987645,34.9838435 43.3011116,33.9182402 C42.9030785,32.8526369 42.5909628,31.8653477 42.363624,30.9556121 C41.6245826,31.9508848 40.9072107,32.9374138 40.2111281,33.9182402 C39.5146653,34.8983063 38.7684008,35.8433972 37.973095,36.7523724 C37.8031612,36.981232 37.5967314,37.2074303 37.3549463,37.4347691 C37.1135413,37.6628683 36.8797397,37.7757774 36.6520207,37.7757774 C36.2543678,37.7757774 35.9848306,37.6263724 35.8418884,37.3279427 C35.7000868,37.0295129 35.7000868,36.7250005 35.8418884,36.4117443 C36.4680207,35.1906534 37.2340537,33.9547361 38.1434091,32.7036121 C38.7402686,31.7942567 39.3439711,30.8780584 39.9552769,29.9542567 C40.5665826,29.0308353 41.1980372,28.1150171 41.8523017,27.2045212 C41.8523017,26.9775625 41.8591446,26.7296948 41.8735909,26.4586369 C41.8872769,26.1890997 41.9093264,25.941232 41.9370785,25.7127526 C41.9655909,25.570951 42.0077893,25.3937939 42.0651942,25.180141 C42.122219,24.9668683 42.2214421,24.83267 42.363624,24.7748848 C42.5054256,24.7475129 42.6476074,24.8174634 42.7901694,24.9885377 C42.9315909,25.1588518 43.030814,25.3014138 43.0885992,25.4143229 C44.1682686,23.8799758 45.2544008,22.3604551 46.3488967,20.8534799 C47.4430124,19.3480253 48.5584174,17.8277443 49.6954917,16.2930171 C50.8314256,14.75867 51.9757231,13.2387691 53.1261033,11.7321741 C54.277624,10.2263394 55.4492934,8.73457079 56.6426322,7.25648815 C57.4668306,6.23384352 58.3123182,5.21043856 59.1787149,4.18741377 C60.0458719,3.16476914 60.9480041,2.15657079 61.8858719,1.1609179 C61.913624,1.13316584 61.9991612,1.04800881 62.1417231,0.905446828 C62.2831446,0.763645175 62.4325496,0.614240216 62.5891777,0.457992282 C62.7454256,0.302124513 62.8944504,0.180851786 63.0366322,0.0956947614 C63.1784339,0.0105377366 63.277657,-0.0175944948 63.335062,0.0105377366" id="Fill-5"></path>
                            <path d="M66.3874241,28.9940661 C66.3874241,29.0229587 66.3452257,29.0940496 66.2604489,29.2069587 C65.9186803,29.5483471 65.5491596,29.8749091 65.1515067,30.187405 C64.7530935,30.4999008 64.3554406,30.8127769 63.9581679,31.1252727 C62.6507794,32.0631405 61.2441679,33.1572562 59.7383332,34.4076198 C59.2547629,34.7482479 58.8217547,35.1105455 58.4377877,35.4945124 C58.0545811,35.8780992 57.6352588,36.2685289 57.1805811,36.666562 C57.0669117,36.751719 56.8889943,36.8870579 56.6483497,37.0710579 C56.4065646,37.2565785 56.2567794,37.3770909 56.200515,37.4333554 C55.972796,37.660314 55.6743662,37.7386281 55.3052257,37.6679174 C54.9357051,37.5960661 54.6517216,37.4333554 54.452515,37.1778843 C54.2255563,36.8939008 54.1472423,36.5810248 54.2187133,36.2396364 C54.2890439,35.8986281 54.39511,35.5732066 54.5380522,35.2595702 C54.8509282,34.5498017 55.1843332,33.8814711 55.5401679,33.2560992 C55.8944819,32.6311074 56.2860522,31.9916694 56.7118373,31.3377851 C56.2860522,31.707686 55.8735728,32.0772066 55.4759199,32.4467273 C55.0775067,32.8162479 54.6798538,33.1572562 54.2822009,33.4689917 C53.6564489,34.0384793 53.0318373,34.5779339 52.4068456,35.0892562 C51.7814737,35.6001983 51.1279695,36.112281 50.445953,36.6243636 C50.2760191,36.7665455 50.0695894,36.9220331 49.8278042,37.0923471 C49.5863993,37.2634215 49.3446142,37.3983802 49.1035894,37.4976033 C48.8614241,37.5960661 48.6135563,37.6466281 48.3577051,37.6466281 C48.1014737,37.6466281 47.860829,37.5610909 47.6327299,37.3907769 C47.3206142,37.163438 47.1571431,36.8513223 47.1426968,36.4532893 C47.1290108,36.0556364 47.1791927,35.7001818 47.2921018,35.387686 C47.5760852,34.3931736 48.0379861,33.4055041 48.6774241,32.4250579 C49.3164819,31.4446116 49.976829,30.5493223 50.6592257,29.7403306 C51.3412423,28.9298182 51.966234,28.2550248 52.5349613,27.7151901 C53.1029282,27.1757355 53.4724489,26.8347273 53.6431431,26.6917851 C54.1548456,26.2093554 54.7577877,25.711719 55.4546307,25.1996364 C56.1507133,24.6890744 56.8958373,24.2271736 57.6919034,23.8146942 C58.4879695,23.4037355 59.3045646,23.0691901 60.1432092,22.8133388 C60.9814737,22.5574876 61.7847629,22.4297521 62.5515563,22.4297521 C62.9492092,22.4297521 63.3898208,22.4867769 63.8730108,22.6004463 C64.3554406,22.7141157 64.7108951,22.9273884 64.9386142,23.2398843 C64.9667464,23.2680165 65.0093249,23.3318843 65.0667299,23.4314876 C65.1229943,23.5310909 65.1093084,23.5668264 65.0241513,23.5379339 C64.2562175,23.3391074 63.5171761,23.3109752 62.8074075,23.453157 C62.0968786,23.5953388 61.400796,23.8363636 60.7191596,24.1773719 C60.0367629,24.518 59.3828786,24.9384628 58.7575067,25.4353388 C58.132515,25.9322149 57.5223497,26.408562 56.9254902,26.8628595 C56.4134075,27.2886446 55.8598869,27.8007273 55.2630274,28.3972066 C54.6661679,28.9940661 54.0829943,29.6540331 53.5157877,30.3793884 C52.9470604,31.1036033 52.4000026,31.8707769 51.874234,32.6805289 C51.3480852,33.4910413 50.8861844,34.3220826 50.4889117,35.1747934 C51.6244654,34.4357521 52.8257877,33.5906446 54.0905976,32.6379504 C55.3546472,31.6867769 56.5837216,30.769438 57.7774406,29.8889752 C58.3454075,29.4061653 58.9635563,28.9298182 59.6315067,28.4610744 C60.299077,27.9923306 60.9457381,27.5022975 61.5714902,26.9902149 C61.7414241,26.8484132 61.9615398,26.6704959 62.2318373,26.4576033 C62.5013745,26.2443306 62.7712918,26.0458843 63.0419695,25.861124 C63.3118869,25.6759835 63.5532918,25.5064298 63.7661844,25.3498017 C63.979077,25.1935537 64.1292423,25.1148595 64.2140191,25.1148595 C64.441358,25.058595 64.625358,25.1080165 64.7683001,25.2642645 C64.9101018,25.4208926 64.9523001,25.5980496 64.8956555,25.7964959 C64.8956555,25.854281 64.8386307,25.9538843 64.7253414,26.0949256 C64.611672,26.2378678 64.4835563,26.3933554 64.3417547,26.5644298 C64.1988125,26.735124 64.0646142,26.8917521 63.9368786,27.0331736 C63.8091431,27.1757355 63.7300687,27.2749587 63.7026968,27.3312231 C63.2476389,27.8429256 62.7439199,28.4397851 62.1896389,29.1214215 C61.6349778,29.8038182 61.0951431,30.4645455 60.5689943,31.1036033 C60.0432257,31.7426612 59.5889282,32.3045455 59.2049613,32.7873554 C58.8217547,33.2705455 58.5727464,33.5834215 58.4598373,33.7252231 C58.7149282,33.5549091 59.0627794,33.3279504 59.5037712,33.0432066 C59.9440026,32.7596033 60.2926142,32.5178182 60.5480852,32.3186116 C61.343391,31.779157 62.1531431,31.2602314 62.9781018,30.762595 C63.8019199,30.265719 64.6538704,29.7893719 65.5354737,29.3350744 C65.5917381,29.2780496 65.7339199,29.1925124 65.9612588,29.078843 C66.1885976,28.9659339 66.3300191,28.9374215 66.3874241,28.9940661" id="Fill-7"></path>
                            <path d="M80.0736108,28.9940661 C80.0736108,29.0229587 80.0306522,29.0940496 79.9454951,29.2069587 C79.604867,29.5483471 79.2353464,29.8749091 78.8376935,30.187405 C78.4392803,30.4999008 78.0416274,30.8127769 77.6439745,31.1252727 C76.336586,32.0631405 74.9303546,33.1572562 73.4237596,34.4076198 C72.9405695,34.7482479 72.5079414,35.1105455 72.1239745,35.4945124 C71.7407679,35.8780992 71.3206852,36.2685289 70.8667679,36.666562 C70.7530984,36.751719 70.5751811,36.8870579 70.333396,37.0710579 C70.091991,37.2565785 69.9429662,37.3770909 69.8867018,37.4333554 C69.6586026,37.660314 69.3601728,37.7386281 68.9914125,37.6679174 C68.6218918,37.5960661 68.337148,37.4333554 68.1387018,37.1778843 C67.9106026,36.8939008 67.8326687,36.5810248 67.9045199,36.2396364 C67.9748505,35.8986281 68.0812968,35.5732066 68.2242389,35.2595702 C68.5363546,34.5498017 68.8701398,33.8814711 69.2255943,33.2560992 C69.5806687,32.6311074 69.9714786,31.9916694 70.3976439,31.3377851 C69.9714786,31.707686 69.5593794,32.0772066 69.1617265,32.4467273 C68.7633133,32.8162479 68.3656604,33.1572562 67.9680075,33.4689917 C67.343396,34.0384793 66.7172637,34.5779339 66.0930323,35.0892562 C65.4672803,35.6001983 64.8141563,36.112281 64.1317596,36.6243636 C63.9618257,36.7665455 63.7550158,36.9220331 63.5136108,37.0923471 C63.272586,37.2634215 63.0304208,37.3983802 62.789396,37.4976033 C62.5472307,37.5960661 62.2993629,37.6466281 62.0431315,37.6466281 C61.7876604,37.6466281 61.5466356,37.5610909 61.3189166,37.3907769 C61.0060406,37.163438 60.8433299,36.8513223 60.8288836,36.4532893 C60.8144373,36.0556364 60.8642389,35.7001818 60.9775282,35.387686 C61.2618918,34.3931736 61.7234125,33.4055041 62.3632307,32.4250579 C63.0026687,31.4446116 63.6630158,30.5493223 64.3454125,29.7403306 C65.0270489,28.9298182 65.6512803,28.2550248 66.2207679,27.7151901 C66.789115,27.1757355 67.1586356,26.8347273 67.3289497,26.6917851 C67.840272,26.2093554 68.4439745,25.711719 69.1404373,25.1996364 C69.8365199,24.6890744 70.5827844,24.2271736 71.37771,23.8146942 C72.173396,23.4037355 72.9907513,23.0691901 73.8290158,22.8133388 C74.6669001,22.5574876 75.4701894,22.4297521 76.2373629,22.4297521 C76.6350158,22.4297521 77.0752472,22.4867769 77.5591976,22.6004463 C78.0416274,22.7141157 78.3959414,22.9273884 78.6244208,23.2398843 C78.6521728,23.2680165 78.6951315,23.3318843 78.7521563,23.4314876 C78.8088009,23.5310909 78.795115,23.5668264 78.7095778,23.5379339 C77.9424042,23.3391074 77.2033629,23.3109752 76.4935943,23.453157 C75.7823051,23.5953388 75.0862224,23.8363636 74.4042059,24.1773719 C73.7225695,24.518 73.0686852,24.9384628 72.4436935,25.4353388 C71.8187018,25.9322149 71.207396,26.408562 70.6105365,26.8628595 C70.0995943,27.2886446 69.5449332,27.8007273 68.9480737,28.3972066 C68.3519745,28.9940661 67.7691811,29.6540331 67.200834,30.3793884 C66.6321067,31.1036033 66.085429,31.8707769 65.5596604,32.6805289 C65.0335117,33.4910413 64.571991,34.3220826 64.1747183,35.1747934 C65.3106522,34.4357521 66.5115943,33.5906446 67.7764042,32.6379504 C69.0404538,31.6867769 70.2699084,30.769438 71.4632472,29.8889752 C72.0315943,29.4061653 72.6497431,28.9298182 73.3176935,28.4610744 C73.9848836,27.9923306 74.6319249,27.5022975 75.2572968,26.9902149 C75.4276108,26.8484132 75.6477265,26.6704959 75.9176439,26.4576033 C76.1875613,26.2443306 76.4570984,26.0458843 76.727396,25.861124 C76.9973133,25.6759835 77.2390984,25.5064298 77.451991,25.3498017 C77.6652637,25.1935537 77.8142885,25.1148595 77.8998257,25.1148595 C78.1264042,25.058595 78.3111646,25.1080165 78.4537265,25.2642645 C78.595148,25.4208926 78.6384869,25.5980496 78.5822224,25.7964959 C78.5822224,25.854281 78.5248175,25.9538843 78.411148,26.0949256 C78.2974786,26.2378678 78.1697431,26.3933554 78.0279414,26.5644298 C77.8849993,26.735124 77.7508009,26.8917521 77.6226852,27.0331736 C77.4949497,27.1757355 77.4158753,27.2749587 77.3881232,27.3312231 C76.9334456,27.8429256 76.4293464,28.4397851 75.8746852,29.1214215 C75.3211646,29.8038182 74.7809497,30.4645455 74.2551811,31.1036033 C73.7290323,31.7426612 73.275115,32.3045455 72.891148,32.7873554 C72.5079414,33.2705455 72.258553,33.5834215 72.1456439,33.7252231 C72.401115,33.5549091 72.748586,33.3279504 73.1899579,33.0432066 C73.6301894,32.7596033 73.9780406,32.5178182 74.234272,32.3186116 C75.0288175,31.779157 75.8393299,31.2602314 76.6639084,30.762595 C77.4873464,30.265719 78.3400571,29.7893719 79.2216604,29.3350744 C79.2775447,29.2780496 79.4193464,29.1925124 79.6470654,29.078843 C79.8744042,28.9659339 80.0162059,28.9374215 80.0736108,28.9940661" id="Fill-9"></path>
                        </g>
                    </g>
                </g>
            </g>
        </g>
    </g>
</svg>