<?xml version="1.0" encoding="UTF-8"?>
<svg width="83px" height="60px" viewBox="0 0 83 60" version="1.1" xmlns="http://www.w3.org/2000/svg" xmlns:xlink="http://www.w3.org/1999/xlink">
    <!-- Generator: Sketch 50.2 (55047) - http://www.bohemiancoding.com/sketch -->
    <title>“</title>
    <desc>Created with Sketch.</desc>
    <defs></defs>
    <g id="Home" stroke="none" stroke-width="1" fill="none" fill-rule="evenodd">
        <g id="Tino-About" transform="translate(-679.000000, -3013.000000)" fill="#282828">
            <g id="comment" transform="translate(415.000000, 3013.000000)">
                <path d="M285.696429,6.16071429 C285.964286,7.76785714 285.964286,9.10714286 286.232143,10.7142857 C287.303571,14.4642857 288.107143,18.4821429 289.446429,22.2321429 C290.517857,26.5178571 291.857143,30.2678571 293.196429,34.2857143 C294,37.2321429 295.071429,40.1785714 296.410714,42.8571429 C297.75,46.0714286 299.625,49.0178571 301.232143,52.2321429 C301.767857,53.3035714 302.303571,54.6428571 303.375,55.7142857 C303.642857,55.7142857 303.910714,55.9821429 303.642857,56.5178571 C302.571429,56.7857143 301.5,55.9821429 300.428571,56.25 C299.357143,56.5178571 298.285714,55.9821429 297.482143,55.7142857 C295.875,56.25 294.267857,56.7857143 292.660714,56.25 C292.125,55.9821429 291.589286,56.25 291.053571,56.25 C289.446429,56.5178571 288.107143,56.5178571 286.767857,56.7857143 C285.696429,55.9821429 284.357143,55.4464286 282.75,55.9821429 C281.678571,55.1785714 280.607143,54.9107143 279.535714,54.9107143 C278.464286,54.1071429 277.392857,53.3035714 276.321429,52.7678571 C274.982143,51.4285714 274.178571,50.3571429 273.375,49.0178571 C272.303571,47.4107143 271.232143,45.8035714 271.5,43.9285714 C270.964286,43.125 270.160714,42.3214286 269.892857,41.5178571 C269.892857,40.7142857 269.357143,39.9107143 269.089286,39.375 L268.285714,37.7678571 C267.75,35.625 266.678571,33.75 266.678571,31.3392857 C265.339286,28.6607143 265.607143,25.7142857 265.071429,22.7678571 C264.803571,20.0892857 264.267857,17.6785714 264,15 C264.267857,13.125 265.875,11.7857143 265.875,9.64285714 C266.946429,8.83928571 268.821429,8.57142857 269.357143,7.23214286 C270.160714,7.23214286 270.964286,6.69642857 271.767857,6.16071429 C272.035714,5.89285714 272.571429,5.35714286 273.107143,5.35714286 C274.446429,5.35714286 275.785714,4.55357143 277.125,4.28571429 C277.660714,4.01785714 278.196429,3.75 278.732143,3.75 C280.875,3.75 283.285714,4.01785714 285.696429,4.01785714 C286.232143,4.01785714 286.232143,4.28571429 286.5,4.55357143 L285.696429,6.16071429 Z M324.803571,10.9821429 C325.339286,12.5892857 325.607143,14.4642857 325.875,16.3392857 C326.410714,19.0178571 326.946429,21.6964286 327.75,24.375 C328.821429,28.125 330.160714,31.6071429 331.232143,35.0892857 L332.035714,37.5 C333.642857,41.25 335.25,45 337.392857,48.4821429 C339.535714,52.2321429 341.946429,55.9821429 345.696429,58.3928571 C345.964286,58.6607143 346.232143,59.1964286 346.232143,59.7321429 C343.017857,60 339.535714,59.4642857 336.321429,60 C334.178571,59.1964286 331.767857,58.6607143 329.625,58.9285714 C328.285714,58.125 327.214286,57.5892857 325.875,57.3214286 C325.339286,56.7857143 324.535714,56.5178571 324,55.9821429 C322.928571,54.9107143 321.857143,53.8392857 320.517857,53.0357143 C318.910714,52.2321429 317.571429,50.625 316.5,49.2857143 C316.232143,49.0178571 315.964286,48.4821429 315.696429,48.2142857 C314.625,46.875 312.75,43.3928571 312.482143,41.7857143 C311.678571,39.6428571 310.875,37.5 310.339286,35.3571429 C309.535714,33.4821429 309,31.3392857 307.660714,29.4642857 C307.392857,28.9285714 306.857143,28.125 306.589286,27.5892857 L306.589286,24.375 C306.053571,23.0357143 306.321429,21.1607143 305.785714,20.3571429 C304.446429,16.6071429 305.25,13.125 304.446429,9.91071429 C304.714286,8.83928571 304.714286,8.03571429 304.982143,6.96428571 C304.982143,6.16071429 305.25,5.08928571 306.053571,4.55357143 C307.928571,3.21428571 309.535714,1.60714286 311.946429,1.33928571 C313.017857,1.07142857 314.357143,0.535714286 315.428571,0.267857143 C318.107143,0.535714286 320.517857,0.803571429 322.928571,0 C323.464286,0.267857143 324,0.267857143 324.267857,0.803571429 C324,1.33928571 323.732143,1.60714286 323.464286,2.14285714 C323.464286,5.35714286 323.732143,8.03571429 324.803571,10.9821429 Z M324.803571,28.3928571 C324.267857,27.8571429 324,27.0535714 323.732143,26.5178571 C323.464286,26.5178571 323.196429,26.5178571 322.928571,26.7857143 C322.928571,27.5892857 323.196429,28.3928571 323.732143,28.6607143 C324,28.9285714 324.267857,28.9285714 324.803571,28.3928571 Z M329.357143,42.3214286 L330.160714,43.125 C330.428571,42.5892857 330.428571,42.0535714 330.160714,41.5178571 C329.892857,41.5178571 329.625,41.25 329.357143,41.25 L329.357143,42.3214286 Z M313.553571,29.1964286 C313.553571,29.4642857 313.553571,29.7321429 313.821429,29.7321429 C314.089286,29.7321429 314.625,29.7321429 314.892857,29.1964286 C314.089286,28.3928571 314.089286,28.3928571 313.553571,29.1964286 Z M315.160714,7.5 C315.696429,7.5 315.964286,7.23214286 315.696429,6.69642857 C315.696429,6.42857143 315.160714,6.42857143 314.892857,6.96428571 C314.892857,7.23214286 314.892857,7.5 315.160714,7.5 Z M323.464286,25.4464286 C323.732143,25.4464286 323.732143,25.4464286 323.732143,25.1785714 L323.464286,25.1785714 C323.464286,24.9107143 323.196429,25.1785714 323.196429,25.1785714 L323.464286,25.4464286 Z M328.285714,32.1428571 C328.821429,31.6071429 328.285714,31.3392857 327.75,31.0714286 C327.75,31.875 328.017857,31.875 328.285714,32.1428571 Z M327.214286,34.8214286 C326.678571,35.0892857 326.946429,35.3571429 326.946429,35.625 C327.214286,35.3571429 327.482143,35.0892857 327.214286,34.8214286 Z" id="“"></path>
            </g>
        </g>
    </g>
</svg>