<?xml version="1.0" encoding="UTF-8"?>
<svg width="60px" height="60px" viewBox="0 0 60 60" version="1.1" xmlns="http://www.w3.org/2000/svg" xmlns:xlink="http://www.w3.org/1999/xlink">
    <!-- Generator: Sketch 50.2 (55047) - http://www.bohemiancoding.com/sketch -->
    <title>tino-logo</title>
    <desc>Created with Sketch.</desc>
    <defs></defs>
    <g id="Home" stroke="none" stroke-width="1" fill="none" fill-rule="evenodd">
        <g id="Tino-Home_Branding" transform="translate(-120.000000, -90.000000)" fill="#282828">
            <g id="header" transform="translate(106.000000, 60.000000)">
                <path d="M40.1654124,73.4142251 L40.1654124,64.1571425 L47.6224907,73.4142251 L40.1654124,73.4142251 Z M47.7274548,52.8194285 L47.7241295,52.8194285 L47.7241295,62.0311133 L40.2103764,52.7595729 L40.1596293,52.8019345 L40.1596293,52.7076692 L32.0318507,52.7076692 L32.0318507,46.251509 L55.8555225,46.251509 L55.8555225,52.7076692 L47.7274548,52.7076692 L47.7274548,52.8194285 Z M44.0000723,36.2349548 C30.8749322,36.2349548 20.2349548,46.8749322 20.2349548,60.0000723 C20.2349548,73.1252123 30.8749322,83.7650452 44.0000723,83.7650452 C57.1252123,83.7650452 67.7650452,73.1252123 67.7650452,60.0000723 C67.7650452,46.8749322 57.1252123,36.2349548 44.0000723,36.2349548 Z M44.0000723,90 C27.4315022,90 14,76.5684978 14,60.0000723 C14,43.4315022 27.4315022,30 44.0000723,30 C60.5686423,30 74,43.4315022 74,60.0000723 C74,76.5684978 60.5686423,90 44.0000723,90 Z" id="tino-logo"></path>
            </g>
        </g>
    </g>
</svg>