<?xml version="1.0" encoding="UTF-8"?>
<svg width="122px" height="27px" viewBox="0 0 122 27" version="1.1" xmlns="http://www.w3.org/2000/svg" xmlns:xlink="http://www.w3.org/1999/xlink">
    <!-- Generator: Sketch 50.2 (55047) - http://www.bohemiancoding.com/sketch -->
    <title>vr</title>
    <desc>Created with Sketch.</desc>
    <defs></defs>
    <g id="Home" stroke="none" stroke-width="1" fill="none" fill-rule="evenodd">
        <g id="Tino-About" transform="translate(-810.000000, -3950.000000)" fill="#FFFFFF">
            <g id="clients" transform="translate(0.000000, 3673.000000)">
                <g id="Our-clients" transform="translate(190.000000, 120.000000)">
                    <g id="partners-white">
                        <g id="vr" transform="translate(620.000000, 157.000000)">
                            <path d="M64.9968842,7.73108125 L62.7995842,7.73108125 C62.662253,7.73108125 62.5935874,7.79974687 62.5935874,7.93707812 L61.4262718,15.5589623 C61.4262718,15.6276279 61.4262718,15.6276279 61.3576062,15.6276279 C61.3576062,15.6276279 61.2889405,15.6276279 61.2889405,15.5589623 L60.0529593,7.93707812 C60.0529593,7.79974687 59.9842937,7.73108125 59.8469624,7.73108125 L57.5809969,7.73108125 C57.4436656,7.73108125 57.375,7.79974687 57.375,7.86841249 L57.375,7.93707812 L59.9156281,19.6102341 C59.9156281,19.7475653 59.9842937,19.816231 60.1216249,19.816231 L62.3875905,19.816231 C62.5249217,19.816231 62.5935874,19.7475653 62.5935874,19.6102341 L65.1342154,7.93707812 C65.2028811,7.79974687 65.1342154,7.73108125 64.9968842,7.73108125 Z M71.9321121,14.4603123 C71.8634465,14.4603123 71.8634465,14.4603123 71.9321121,14.4603123 C71.9321121,14.3916467 71.9321121,14.3916467 72.0007778,14.3229811 C72.4814371,14.0483186 72.8247652,13.6363249 73.0994277,13.0869999 C73.3740902,12.5376749 73.5114215,11.9883499 73.5114215,11.3016937 C73.5114215,10.6150374 73.3740902,9.99704682 73.0994277,9.44772183 C72.8247652,8.89839684 72.4127715,8.4864031 71.9321121,8.14307499 C71.4514528,7.79974687 70.8334622,7.66241562 70.2154716,7.66241562 L66.6448591,7.66241562 C66.5761935,7.66241562 66.5075279,7.66241562 66.5075279,7.73108125 C66.4388623,7.79974687 66.4388623,7.79974687 66.4388623,7.86841249 L66.4388623,19.5415685 C66.4388623,19.6102341 66.4388623,19.6788997 66.5075279,19.6788997 C66.5761935,19.7475653 66.5761935,19.7475653 66.6448591,19.7475653 L68.7048278,19.7475653 C68.7734935,19.7475653 68.8421591,19.7475653 68.8421591,19.6788997 C68.9108247,19.6102341 68.9108247,19.6102341 68.9108247,19.5415685 L68.9108247,14.8036404 C68.9108247,14.7349748 68.9108247,14.7349748 68.9794903,14.7349748 L69.597481,14.7349748 C69.6661466,14.7349748 69.6661466,14.7349748 69.6661466,14.8036404 L71.039459,19.5415685 C71.1081247,19.6788997 71.1767903,19.7475653 71.3141215,19.7475653 L73.4427559,19.7475653 C73.5800871,19.7475653 73.6487527,19.6788997 73.6487527,19.5415685 L73.6487527,19.4729028 L71.9321121,14.4603123 Z M70.6274653,12.5376749 C70.4214684,12.8123374 70.0781403,12.9496686 69.7348122,12.9496686 L68.9108247,12.9496686 C68.8421591,12.9496686 68.8421591,12.9496686 68.8421591,12.881003 L68.8421591,9.92838119 C68.8421591,9.85971557 68.8421591,9.85971557 68.9108247,9.85971557 L69.7348122,9.85971557 C70.0781403,9.85971557 70.4214684,9.99704682 70.6274653,10.2717093 C70.8334622,10.5463718 70.9707934,10.9583655 70.9707934,11.4390249 C70.9707934,11.8510186 70.8334622,12.2630124 70.6274653,12.5376749 Z M85.1159118,7.73108125 L78.1120182,7.73108125 C78.0433526,7.73108125 77.974687,7.73108125 77.974687,7.79974687 C77.9060214,7.79974687 77.9060214,7.86841249 77.9060214,7.93707812 L77.9060214,9.58505308 C77.9060214,9.6537187 77.9060214,9.72238432 77.974687,9.72238432 C78.0433526,9.79104995 78.0433526,9.79104995 78.1120182,9.79104995 L80.2406526,9.79104995 C80.3093182,9.79104995 80.3093182,9.79104995 80.3093182,9.85971557 L80.3093182,19.5415685 C80.3093182,19.6102341 80.3093182,19.6788997 80.3779838,19.6788997 C80.4466494,19.7475653 80.4466494,19.7475653 80.5153151,19.7475653 L82.5752838,19.7475653 C82.6439494,19.7475653 82.712615,19.7475653 82.712615,19.6788997 C82.7812806,19.6102341 82.7812806,19.6102341 82.7812806,19.5415685 L82.7812806,9.92838119 C82.7812806,9.85971557 82.7812806,9.85971557 82.8499463,9.85971557 L85.0472462,9.85971557 C85.1159118,9.85971557 85.1845774,9.85971557 85.1845774,9.79104995 C85.2532431,9.72238432 85.2532431,9.72238432 85.2532431,9.6537187 L85.2532431,7.93707812 C85.2532431,7.86841249 85.2532431,7.79974687 85.1845774,7.79974687 C85.2532431,7.73108125 85.1845774,7.73108125 85.1159118,7.73108125 Z M88.8238555,7.73108125 L86.7638868,7.73108125 C86.6952212,7.73108125 86.6265555,7.73108125 86.6265555,7.79974687 C86.5578899,7.86841249 86.5578899,7.86841249 86.5578899,7.93707812 L86.5578899,19.6102341 C86.5578899,19.6788997 86.5578899,19.7475653 86.6265555,19.7475653 C86.6952212,19.816231 86.6952212,19.816231 86.7638868,19.816231 L88.8238555,19.816231 C88.8925211,19.816231 88.9611867,19.816231 88.9611867,19.7475653 C89.0298524,19.6788997 89.0298524,19.6788997 89.0298524,19.6102341 L89.0298524,7.93707812 C89.0298524,7.86841249 89.0298524,7.79974687 88.9611867,7.79974687 C88.9611867,7.73108125 88.8925211,7.73108125 88.8238555,7.73108125 Z M94.0424429,7.59375 C92.9437929,7.59375 92.1198054,7.86841249 91.5018148,8.4864031 C90.8838242,9.10439371 90.5404961,9.85971557 90.5404961,10.8896999 L90.5404961,16.7262779 C90.5404961,17.6875966 90.8838242,18.5115841 91.5018148,19.1295747 C92.1198054,19.7475653 93.0124585,20.0222278 94.0424429,20.0222278 C95.1410928,20.0222278 95.9650803,19.7475653 96.6517365,19.1295747 C97.2697272,18.5115841 97.6130553,17.7562623 97.6130553,16.7262779 L97.6130553,13.4989936 C97.6130553,13.430328 97.6130553,13.3616624 97.5443896,13.3616624 C97.475724,13.2929967 97.475724,13.2929967 97.4070584,13.2929967 L94.2484397,13.2929967 C94.1797741,13.2929967 94.1111085,13.2929967 94.1111085,13.3616624 C94.0424429,13.430328 94.0424429,13.430328 94.0424429,13.4989936 L94.0424429,15.0096373 C94.0424429,15.0783029 94.0424429,15.1469686 94.1111085,15.1469686 C94.1797741,15.2156342 94.1797741,15.2156342 94.2484397,15.2156342 L95.0037616,15.2156342 C95.0724272,15.2156342 95.0724272,15.2156342 95.0724272,15.2842998 L95.0724272,16.6576123 C95.0724272,17.0009404 95.0037616,17.2756029 94.7977647,17.4815998 C94.5917678,17.6875966 94.385771,17.8249279 94.0424429,17.8249279 C93.7677804,17.8249279 93.4931179,17.6875966 93.287121,17.4815998 C93.0811241,17.2756029 93.0124585,17.0009404 93.0124585,16.6576123 L93.0124585,10.8210343 C93.0124585,10.4777062 93.0811241,10.2030437 93.287121,9.99704682 C93.4931179,9.79104995 93.6991147,9.6537187 94.0424429,9.6537187 C94.385771,9.6537187 94.5917678,9.79104995 94.7977647,9.99704682 C95.0037616,10.2030437 95.0724272,10.4777062 95.0724272,10.8210343 L95.0724272,11.5076905 C95.0724272,11.5763562 95.0724272,11.6450218 95.1410928,11.6450218 C95.2097585,11.7136874 95.2097585,11.7136874 95.2784241,11.7136874 L97.3383928,11.7136874 C97.4070584,11.7136874 97.475724,11.7136874 97.475724,11.6450218 C97.5443896,11.5763562 97.5443896,11.5763562 97.5443896,11.5076905 L97.5443896,10.8210343 C97.5443896,9.85971557 97.2010615,9.03572809 96.5830709,8.41773748 C95.9650803,7.86841249 95.0724272,7.59375 94.0424429,7.59375 Z M105.234939,7.73108125 L99.123699,7.73108125 C99.0550334,7.73108125 98.9863677,7.73108125 98.9863677,7.79974687 C98.9177021,7.86841249 98.9177021,7.86841249 98.9177021,7.93707812 L98.9177021,19.6102341 C98.9177021,19.6788997 98.9177021,19.7475653 98.9863677,19.7475653 C99.0550334,19.816231 99.0550334,19.816231 99.123699,19.816231 L105.234939,19.816231 C105.303605,19.816231 105.372271,19.816231 105.372271,19.7475653 C105.440936,19.6788997 105.440936,19.6788997 105.440936,19.6102341 L105.440936,17.9622591 C105.440936,17.8935935 105.440936,17.8249279 105.372271,17.8249279 C105.303605,17.7562623 105.303605,17.7562623 105.234939,17.7562623 L101.526996,17.7562623 C101.45833,17.7562623 101.45833,17.7562623 101.45833,17.6875966 L101.45833,14.9409717 C101.45833,14.8723061 101.45833,14.8723061 101.526996,14.8723061 L103.65563,14.8723061 C103.724296,14.8723061 103.792961,14.8723061 103.792961,14.8036404 C103.861627,14.7349748 103.861627,14.7349748 103.861627,14.6663092 L103.861627,13.0183342 C103.861627,12.9496686 103.861627,12.881003 103.792961,12.881003 C103.724296,12.8123374 103.724296,12.8123374 103.65563,12.8123374 L101.526996,12.8123374 C101.45833,12.8123374 101.45833,12.8123374 101.45833,12.7436717 L101.45833,9.99704682 C101.45833,9.92838119 101.45833,9.92838119 101.526996,9.92838119 L105.234939,9.92838119 C105.303605,9.92838119 105.372271,9.92838119 105.372271,9.85971557 C105.440936,9.79104995 105.440936,9.79104995 105.440936,9.72238432 L105.440936,7.93707812 C105.440936,7.86841249 105.440936,7.79974687 105.372271,7.79974687 C105.303605,7.73108125 105.303605,7.73108125 105.234939,7.73108125 Z M112.238833,14.4603123 C112.238833,14.4603123 112.238833,14.4603123 112.238833,14.4603123 C112.238833,14.3916467 112.238833,14.3916467 112.307499,14.3229811 C112.788158,14.0483186 113.131486,13.6363249 113.406149,13.0869999 C113.680811,12.5376749 113.818142,11.9883499 113.818142,11.3016937 C113.818142,10.6150374 113.680811,9.99704682 113.406149,9.44772183 C113.131486,8.89839684 112.719492,8.4864031 112.238833,8.14307499 C111.758174,7.79974687 111.140183,7.66241562 110.522192,7.66241562 L106.95158,7.66241562 C106.882914,7.66241562 106.814249,7.66241562 106.814249,7.73108125 C106.745583,7.79974687 106.745583,7.79974687 106.745583,7.86841249 L106.745583,19.5415685 C106.745583,19.6102341 106.745583,19.6788997 106.814249,19.6788997 C106.882914,19.7475653 106.882914,19.7475653 106.95158,19.7475653 L109.011549,19.7475653 C109.080214,19.7475653 109.14888,19.7475653 109.14888,19.6788997 C109.217546,19.6102341 109.217546,19.6102341 109.217546,19.5415685 L109.217546,14.8036404 C109.217546,14.7349748 109.217546,14.7349748 109.286211,14.7349748 L109.904202,14.7349748 C109.972867,14.7349748 109.972867,14.7349748 109.972867,14.8036404 L111.34618,19.5415685 C111.414846,19.6788997 111.483511,19.7475653 111.620842,19.7475653 L113.749477,19.7475653 C113.886808,19.7475653 113.955474,19.6788997 113.955474,19.5415685 L113.955474,19.4729028 L112.238833,14.4603123 Z M111.002852,12.5376749 C110.796855,12.8123374 110.453527,12.9496686 110.110199,12.9496686 L109.286211,12.9496686 C109.217546,12.9496686 109.217546,12.9496686 109.217546,12.881003 L109.217546,9.92838119 C109.217546,9.85971557 109.217546,9.85971557 109.286211,9.85971557 L110.110199,9.85971557 C110.453527,9.85971557 110.796855,9.99704682 111.002852,10.2717093 C111.208849,10.5463718 111.34618,10.9583655 111.34618,11.4390249 C111.34618,11.8510186 111.208849,12.2630124 111.002852,12.5376749 Z M121.508692,15.2156342 C121.302695,14.8036404 121.028033,14.4603123 120.616039,14.1169842 C120.272711,13.7736561 119.65472,13.3616624 118.968064,12.881003 C118.350074,12.4003436 117.869414,12.0570155 117.663417,11.782353 C117.45742,11.5076905 117.320089,11.233028 117.320089,10.8896999 C117.320089,10.5463718 117.388755,10.2717093 117.594752,10.0657124 C117.732083,9.85971557 118.006745,9.79104995 118.281408,9.79104995 C118.55607,9.79104995 118.830733,9.92838119 119.03673,10.1343781 C119.242727,10.3403749 119.311392,10.6150374 119.311392,10.9583655 L119.311392,11.4390249 C119.311392,11.5076905 119.311392,11.5763562 119.380058,11.5763562 C119.448723,11.6450218 119.448723,11.6450218 119.517389,11.6450218 L121.577358,11.6450218 C121.646023,11.6450218 121.714689,11.6450218 121.714689,11.5763562 C121.783355,11.5076905 121.783355,11.5076905 121.783355,11.4390249 L121.783355,11.0270312 C121.783355,10.0657124 121.440027,9.24172496 120.822036,8.62373435 C120.204045,8.00574374 119.311392,7.73108125 118.281408,7.73108125 C117.251424,7.73108125 116.427436,8.00574374 115.809445,8.62373435 C115.191455,9.24172496 114.848127,9.99704682 114.848127,10.9583655 C114.848127,11.5763562 114.985458,12.1256811 115.26012,12.6063405 C115.534783,13.0869999 115.809445,13.4989936 116.221439,13.7736561 C116.564767,14.1169842 117.045427,14.4603123 117.663417,14.8723061 C118.350074,15.3529654 118.830733,15.6962936 119.03673,15.970956 C119.242727,16.2456185 119.380058,16.520281 119.380058,16.8636091 C119.380058,17.2069373 119.311392,17.4815998 119.105395,17.6875966 C118.899399,17.8935935 118.693402,18.0309247 118.418739,18.0309247 C118.144077,18.0309247 117.869414,17.8935935 117.732083,17.6875966 C117.526086,17.4815998 117.45742,17.2069373 117.45742,16.7949435 L117.45742,16.3829498 C117.45742,16.3142842 117.45742,16.2456185 117.388755,16.2456185 C117.320089,16.1769529 117.320089,16.1769529 117.251424,16.1769529 L115.191455,16.1769529 C115.122789,16.1769529 115.054124,16.1769529 115.054124,16.2456185 C114.985458,16.3142842 114.985458,16.3142842 114.985458,16.3829498 L114.985458,16.9322748 C114.985458,17.5502654 115.122789,18.0995904 115.397452,18.5802497 C115.672114,19.0609091 116.084108,19.4042372 116.633433,19.6788997 C117.182758,19.9535622 117.732083,20.0908934 118.418739,20.0908934 C119.448723,20.0908934 120.272711,19.816231 120.959367,19.1982403 C121.577358,18.5802497 121.920686,17.8249279 121.920686,16.7949435 C121.85202,16.1082873 121.714689,15.6276279 121.508692,15.2156342 Z" id="Shape"></path>
                            <path d="M0,0 L16.74,3.85714286 L20.8285714,27 L13.3457143,11.8028571 L0,0 Z M23.1428571,27 L27.2314286,3.85714286 L43.9714286,0 L30.6257143,11.8028571 L23.1428571,27 Z" id="Combined-Shape"></path>
                        </g>
                    </g>
                </g>
            </g>
        </g>
    </g>
</svg>