<?xml version="1.0" encoding="UTF-8"?>
<svg width="56px" height="60px" viewBox="0 0 56 60" version="1.1" xmlns="http://www.w3.org/2000/svg" xmlns:xlink="http://www.w3.org/1999/xlink">
    <!-- Generator: Sketch 50.2 (55047) - http://www.bohemiancoding.com/sketch -->
    <title>z25</title>
    <desc>Created with Sketch.</desc>
    <defs></defs>
    <g id="Home" stroke="none" stroke-width="1" fill="none" fill-rule="evenodd">
        <g id="Tino-About" transform="translate(-843.000000, -3793.000000)">
            <g id="clients" transform="translate(0.000000, 3673.000000)">
                <g id="Our-clients" transform="translate(190.000000, 120.000000)">
                    <g id="partners-white">
                        <g id="z25" transform="translate(653.000000, 0.000000)">
                            <path d="M35.0490671,46.7734654 C32.783991,47.7315193 30.3764801,48.2172709 27.8933522,48.2172709 C25.4101528,48.2172709 23.002642,47.7315193 20.7375658,46.7734654 C18.5485359,45.8476043 16.5820646,44.5215525 14.8927364,42.8322958 C13.2034082,41.1429677 11.8774279,39.1764964 10.9515668,36.9873949 C9.99351296,34.7223187 9.50776136,32.3148078 9.50776136,29.83168 C9.50776136,27.3485521 9.99351296,24.9409697 10.9515668,22.6759651 C11.8774279,20.4868636 13.2034082,18.5203923 14.8927364,16.8311357 C16.5820646,15.1418075 18.5485359,13.8157557 20.7375658,12.8898945 C23.002642,11.9318407 25.4101528,11.4460891 27.8933522,11.4460891 C30.3764801,11.4460891 32.783991,11.9318407 35.0490671,12.8898945 C37.2380971,13.8157557 39.2045684,15.1418075 40.8938966,16.8311357 C42.5832247,18.5203923 43.909205,20.4868636 44.8351377,22.6759651 C45.79312,24.9409697 46.2789431,27.3485521 46.2789431,29.83168 C46.2789431,32.3148078 45.79312,34.7223187 44.8351377,36.9873949 C43.909205,39.1764964 42.5832247,41.1429677 40.8938966,42.8322958 C39.2045684,44.5215525 37.2380971,45.8476043 35.0490671,46.7734654 M48.7828174,29.83168 C48.7828174,18.2947575 39.4302748,8.94221486 27.8933522,8.94221486 C16.3563582,8.94221486 7.00388712,18.2947575 7.00388712,29.83168 C7.00388712,41.3686025 16.3563582,50.7211451 27.8933522,50.7211451 C39.4302748,50.7211451 48.7828174,41.3686025 48.7828174,29.83168" id="Fill-1" fill="#FFFFFF"></path>
                            <polygon id="Fill-3" fill="#FFFFFF" points="34.9458288 22.5762823 32.4419546 22.5762823 32.1319034 22.5762823 33.5866543 20.0740534 33.4783439 20.0740534 33.4793455 20.072408 22.249541 20.072408 20.7937885 22.5762823 29.2703328 22.5762823 20.8408614 37.0750019 23.3446641 37.0750734 23.6547152 37.0750734 22.1999643 39.5772307 22.3082747 39.5772307 22.3072732 39.5788761 33.5371492 39.5788761 34.9929017 37.0750734 26.5162858 37.0750734"></polygon>
                            <polygon id="Fill-5" fill="#FFFFFF" points="1.26479273 17.9426985 4.16678298 20.7207827 4.71770685 20.9607969 5.60343448 18.927651 4.94105243 18.6390617 4.38962779 19.9048774 1.48470443 17.1333748 0.933852092 16.8933605 0.0823917705 18.8477417 0.744773817 19.1363311"></polygon>
                            <polygon id="Fill-7" fill="#FFFFFF" points="9.11172715 13.6192016 8.54370539 13.1725819 7.71685458 14.2242807 6.55262459 13.3090073 7.26458335 12.4035348 6.69649005 11.9569152 5.98460283 12.8623877 4.84855932 11.9691484 5.67541013 10.9174497 5.10738838 10.4709016 3.78527124 12.1525036 7.78961001 15.3008035"></polygon>
                            <path d="M11.1427984,7.89339917 L10.2168657,6.63838586 L10.6141232,6.3452895 C10.9595148,6.09046664 11.2237093,6.34006713 11.4743113,6.67973556 C11.7249134,7.01940398 11.8854475,7.34547995 11.5400559,7.60030281 L11.1427984,7.89339917 Z M12.812024,10.1558999 L11.5717478,8.47487031 L11.9344519,8.20724192 L13.710128,9.49330327 L14.3836701,8.99632001 L12.4312205,7.62734465 C12.6567838,7.14982006 12.4928158,6.71064052 12.1190947,6.20407099 C11.4947,5.35776149 10.9277514,5.21597067 10.1793791,5.76811071 L9.14313288,6.53265083 L12.1672407,10.6315645 L12.812024,10.1558999 Z" id="Fill-9" fill="#FFFFFF"></path>
                            <polygon id="Fill-11" fill="#FFFFFF" points="18.8845415 6.72940527 18.4306249 5.5014338 18.5201205 4.62944171 20.0185104 6.31025672 20.830481 6.0101495 18.6890247 3.6213104 18.9168772 1.28712729 18.1586326 1.56741812 17.9494518 4.19970535 17.1185232 1.95187013 16.3670032 2.22965709 18.1330215 7.00719223"></polygon>
                            <path d="M25.8113236,1.25567147 L26.4000202,3.35069882 L25.5295304,3.4135103 L25.8113236,1.25567147 Z M25.4245108,4.14557159 L26.601904,4.06058294 L26.8814794,5.05183098 L27.7163426,4.99152338 L26.1152224,1.43078528e-05 L25.3374475,0.0561010909 L24.4552968,5.22688756 L25.297314,5.16615073 L25.4245108,4.14557159 Z" id="Fill-13" fill="#FFFFFF"></path>
                            <polygon id="Fill-15" fill="#FFFFFF" points="33.9943352 5.02564046 32.6813035 4.76895758 33.5199583 0.478819449 32.7335272 0.32508157 31.7563008 5.32445997 33.8556921 5.73480919"></polygon>
                            <path d="M39.4005502,5.02227096 C39.8093971,4.18697851 40.0615015,3.73685346 40.3033757,3.58447483 C40.4179101,3.51307864 40.555337,3.49276149 40.7288197,3.57760706 C40.9023024,3.66252417 40.9769894,3.78671633 40.990868,3.92092399 C41.0189114,4.20543564 40.8117337,4.67752325 40.4029584,5.51288723 C39.9941115,6.34817968 39.7484456,6.80138092 39.5065714,6.95383109 C39.3919655,7.02515574 39.2481716,7.0423967 39.0746888,6.95747959 C38.9012061,6.87256249 38.8329577,6.75158959 38.8190075,6.61731039 C38.7909641,6.33279874 38.9917033,5.85756341 39.4005502,5.02227096 M38.7570545,7.6064838 C39.1811393,7.8140192 39.5391933,7.78218423 39.8355805,7.64847735 C40.3201159,7.4395827 40.5911066,6.95096952 41.1225718,5.86507503 C41.654037,4.77918054 41.8736626,4.26538555 41.7413149,3.7545952 C41.6650541,3.43853473 41.4705388,3.1362098 41.046454,2.9286744 C40.6223693,2.72106745 40.2643153,2.75297396 39.9678566,2.88660931 C39.4866119,3.10509022 39.2123304,3.58411713 38.6808652,4.67008316 C38.1494,5.75597765 37.9393607,6.26648184 38.0621221,6.78056299 C38.1384545,7.09662346 38.3329698,7.39894839 38.7570545,7.6064838" id="Fill-17" fill="#FFFFFF"></path>
                            <path d="M48.5041791,14.8194015 L47.6100814,13.702459 L50.0498564,13.2246482 C50.3984673,13.1563998 50.8050249,12.9775516 51.0954028,12.745049 C51.4137525,12.4902261 51.552181,12.2052852 51.572212,11.9326491 C51.5933876,11.6499975 51.4849341,11.3886645 51.2927081,11.1485072 C51.1004105,10.9083499 50.8199766,10.7297164 50.5439781,10.6940183 C50.2680512,10.6583917 50.0066467,10.7209886 49.688297,10.9758114 L49.4537913,11.163602 L49.9276674,11.7555894 L50.1845649,11.549914 C50.4134905,11.3666304 50.6324722,11.4112709 50.7621013,11.5732358 C50.891802,11.7351292 50.8728441,11.9518932 50.6439185,12.1351768 C50.3534691,12.3676794 50.0440618,12.4962354 49.8049775,12.541019 L47.0769708,13.0938029 L46.5743359,13.4961397 L47.9736439,15.2441301 L48.5041791,14.8194015 Z" id="Fill-19" fill="#FFFFFF"></path>
                            <path d="M51.4250915,19.0741992 L51.6673234,18.9675342 L51.3617077,18.2735318 L51.1325674,18.3744737 C50.752837,18.5416609 50.5763496,18.7444748 50.4832055,19.0121747 C50.3871998,19.273293 50.4166025,19.5886381 50.5434416,19.8767267 C50.6674191,20.1582337 50.8962017,20.3936694 51.15732,20.4896751 C51.6070874,20.6590085 51.9831693,20.5011929 52.5723667,20.24172 C53.3907758,19.8813052 53.6528957,19.6955177 53.7772309,19.4454165 C53.8971307,19.2206401 53.9145863,18.9940752 53.7819525,18.6928949 C53.7329481,18.5815799 53.6519657,18.4687624 53.5498076,18.3964362 C53.4476496,18.3241816 53.3316129,18.2736749 53.2205839,18.2522846 L54.4710187,17.7015754 L55.0765271,19.0764885 L55.6984179,18.8025646 L54.8133341,16.7925975 L52.1290378,17.9747123 L52.4202742,18.6359497 L52.5184261,18.59274 C52.7803313,18.4774187 52.9841467,18.5674151 53.0706376,18.7638619 C53.119642,18.8751055 53.114205,18.9869929 53.044812,19.095661 C52.9550302,19.2290102 52.764378,19.3285928 52.2668225,19.5477176 C51.7103185,19.7928111 51.5321858,19.8321577 51.3928273,19.7997504 C51.2788652,19.771707 51.2058236,19.6945162 51.1654039,19.6028028 C51.078913,19.4064276 51.1435845,19.1981768 51.4250915,19.0741992" id="Fill-21" fill="#FFFFFF"></path>
                            <path d="M44.5977418,8.72759707 C44.8940574,8.72759707 45.1342863,8.48736822 45.1342863,8.19105259 C45.1342863,7.89473696 44.8940574,7.65450811 44.5977418,7.65450811 C44.3014262,7.65450811 44.0611973,7.89473696 44.0611973,8.19105259 C44.0611973,8.48736822 44.3014262,8.72759707 44.5977418,8.72759707" id="Fill-23" fill="#FFFFFF"></path>
                            <polygon id="Fill-25" fill="#FFFFFF" points="54.44784 41.7256407 51.5450628 38.9479141 50.9939959 38.7079714 50.1080536 40.7408311 50.7706503 41.029349 51.322218 39.7637479 54.2278568 42.5348928 54.7789237 42.7748355 55.6305271 40.820669 54.968002 40.5321511"></polygon>
                            <polygon id="Fill-27" fill="#FFFFFF" points="46.5988739 46.0485223 47.1670387 46.4950704 47.9941041 45.4435148 49.1586203 46.3587166 48.4465184 47.2640459 49.0146833 47.710594 49.7267851 46.8052646 50.8631863 47.6982893 50.0360494 48.7498449 50.6042142 49.196393 51.926689 47.5150772 47.9213487 44.367135"></polygon>
                            <path d="M44.5672732,51.7735306 L45.4934205,53.0284008 L45.0960915,53.3214257 C44.7506284,53.576177 44.4863623,53.326648 44.2356887,52.9869796 C43.9850152,52.6473827 43.8244095,52.3213783 44.1699442,52.0665554 L44.5672732,51.7735306 Z M42.8976183,49.5113875 L44.1381807,51.192131 L43.7754051,51.4596879 L41.9992998,50.1738411 L41.325543,50.6707529 L43.2784934,52.0395136 C43.0528585,52.5170382 43.2168981,52.9560747 43.5907623,53.4626442 C44.2152285,54.3088106 44.7823918,54.4506014 45.5309787,53.8985329 L46.5675111,53.1340643 L43.5425448,49.035723 L42.8976183,49.5113875 Z" id="Fill-29" fill="#FFFFFF"></path>
                            <polygon id="Fill-31" fill="#FFFFFF" points="36.8234984 52.9373671 37.2774866 54.165124 37.187991 55.0370445 35.6891719 53.3565157 34.8770581 53.6565514 37.0190868 56.0450328 36.7911627 58.3788582 37.549622 58.0986389 37.7588028 55.4667094 38.5899459 57.7142584 39.3416805 57.4364715 37.575233 52.6595802"></polygon>
                            <polygon id="Clip-34" points="27.9894009 54.4396845 31.2513051 54.4396845 31.2513051 59.6658209 27.9894009 59.6658209"></polygon>
                            <path d="M29.8949207,58.4103283 L29.3060095,56.3155871 L30.1767854,56.2527756 L29.8949207,58.4103283 Z M30.281805,55.5208574 L29.1041257,55.6057745 L28.8244787,54.6147411 L27.9894009,54.6749772 L29.5909504,59.6658424 L30.3689399,59.6096841 L31.2513051,54.4396845 L30.4090734,54.5004214 L30.281805,55.5208574 Z" id="Fill-33" fill="#FFFFFF"></path>
                            <polygon id="Fill-36" fill="#FFFFFF" points="21.7097773 54.6408816 23.0231666 54.8974929 22.1842972 59.1870587 22.9709429 59.3407251 23.9483839 54.3421336 21.8484203 53.9317844"></polygon>
                            <path d="M16.3021529,54.6442582 C15.8932345,55.4794791 15.6410586,55.9294611 15.3991128,56.0818397 C15.2845069,56.1532359 15.1470799,56.1736246 14.9735257,56.0887075 C14.7999714,56.0037904 14.725356,55.8796698 14.7114058,55.7454621 C14.6833624,55.4609504 14.8906117,54.9889344 15.2995301,54.1537135 C15.7084485,53.3185641 15.9541859,52.8653629 16.1961317,52.7129842 C16.3107376,52.6416596 16.4546031,52.6244186 16.6281573,52.7093357 C16.80164,52.7941813 16.8698885,52.9152257 16.8838387,53.0494334 C16.911882,53.3338735 16.7110713,53.8090373 16.3021529,54.6442582 M16.9457917,52.0604031 C16.5216354,51.8528677 16.1635098,51.8847026 15.8669796,52.0184095 C15.382301,52.2272326 15.1112388,52.7157743 14.5796305,53.8015972 C14.0480222,54.8873486 13.8283967,55.4010721 13.9607443,55.9117909 C14.0370767,56.2277798 14.2316635,56.5300332 14.6558198,56.7375686 C15.0800476,56.945104 15.4381732,56.913269 15.7347035,56.7795622 C16.2160196,56.5611528 16.4903727,56.0821974 17.021981,54.996446 C17.5535892,53.9106231 17.7637001,53.4002619 17.6409387,52.8862523 C17.5646063,52.5701919 17.3700195,52.2679385 16.9457917,52.0604031" id="Fill-38" fill="#FFFFFF"></path>
                            <path d="M7.19615604,44.8485012 L8.09053992,45.9652291 L5.65004946,46.4430399 C5.30143863,46.5112883 4.89466637,46.6901365 4.60421696,46.9225676 C4.2857957,47.1773189 4.14736722,47.4622598 4.12733623,47.7348244 C4.10616061,48.0174045 4.21461413,48.2788089 4.40691167,48.5188947 C4.59920921,48.7589805 4.87978621,48.937614 5.15578469,48.9733121 C5.43185471,49.0089387 5.69333072,48.9463418 6.01168045,48.691519 L6.24632923,48.5037999 L5.77231007,47.9118841 L5.51534103,48.1174879 C5.28634385,48.3007715 5.06729062,48.2562025 4.93758993,48.0942376 C4.80796079,47.9323443 4.82684715,47.7155803 5.05591588,47.5322967 C5.34636529,47.2998657 5.65584415,47.1713096 5.89499991,47.1265976 L8.62372206,46.5738852 L9.12650001,46.1716199 L7.7268343,44.4238442 L7.19615604,44.8485012 Z" id="Fill-40" fill="#FFFFFF"></path>
                            <path d="M4.27447819,40.5943044 L4.0321747,40.7009695 L4.33786197,41.3948288 L4.56707378,41.2939584 C4.94687573,41.1267712 5.12343463,40.9240289 5.21657876,40.656329 C5.31265599,40.3952107 5.28325335,40.0799371 5.1563427,39.79192 C5.03229361,39.510413 4.80351104,39.2750489 4.54232119,39.1790432 C4.09241076,39.0097097 3.71625731,39.1674538 3.12684531,39.4269267 C2.30829305,39.78727 2.04610165,39.9730575 1.92169487,40.2231587 C1.80179506,40.4478636 1.78433948,40.6744284 1.91697328,40.9755372 C1.96597767,41.0868523 2.04696012,41.1996697 2.14918973,41.2719243 C2.25141934,41.344179 2.36745602,41.3946857 2.4785565,41.4161475 L1.22776401,41.9667137 L0.622112595,40.5920152 L7.15392641e-06,40.865939 L0.885377087,42.8755485 L3.57031721,41.6936483 L3.27908087,41.0324824 L3.18085746,41.0756921 C2.91888067,41.1910134 2.71499377,41.101017 2.6285028,40.9046418 C2.5794984,40.7933267 2.58493539,40.6815108 2.65432847,40.5728426 C2.74418179,40.4394935 2.93483393,40.3399108 3.43253259,40.1208576 C3.9891796,39.8757641 4.16738391,39.8364175 4.30674239,39.8688963 C4.42070444,39.8968681 4.49381757,39.9741305 4.53416572,40.0657723 C4.62072822,40.2621476 4.55605673,40.4703269 4.27447819,40.5943044" id="Fill-42" fill="#FFFFFF"></path>
                            <path d="M11.1036092,50.9394543 C10.807222,50.9394543 10.5669216,51.1796116 10.5669216,51.4759273 C10.5669216,51.7722429 10.807222,52.0124002 11.1036092,52.0124002 C11.3999964,52.0124002 11.6402967,51.7722429 11.6402967,51.4759273 C11.6402967,51.1796116 11.3999964,50.9394543 11.1036092,50.9394543" id="Fill-44" fill="#FFFFFF"></path>
                        </g>
                    </g>
                </g>
            </g>
        </g>
    </g>
</svg>